<?xml version="1.0" encoding="UTF-8"?>
<svg xmlns="http://www.w3.org/2000/svg" width="900" height="520" viewBox="0 0 900 520">
  <rect width="100%" height="100%" fill="#fffdf7"/>
  <text x="70" y="24" font-family="Menlo, monospace" font-size="18" fill="#1f2937">Latency Timeline</text>
  
  <line x1="70" y1="460" x2="870" y2="460" stroke="#111827" stroke-width="1.5"/>
  <line x1="70" y1="460" x2="70" y2="40" stroke="#111827" stroke-width="1.5"/>
  <circle cx="90.94" cy="79.04" r="3" fill="#2563eb"/><circle cx="90.94" cy="79.02" r="3" fill="#2563eb"/><circle cx="90.94" cy="78.71" r="3" fill="#2563eb"/><circle cx="90.95" cy="78.18" r="3" fill="#2563eb"/><circle cx="106.47" cy="443.09" r="3" fill="#2563eb"/><circle cx="106.47" cy="443.48" r="3" fill="#2563eb"/><circle cx="106.49" cy="441.21" r="3" fill="#2563eb"/><circle cx="106.49" cy="441.79" r="3" fill="#2563eb"/><circle cx="121.79" cy="444.90" r="3" fill="#2563eb"/><circle cx="121.83" cy="444.73" r="3" fill="#2563eb"/><circle cx="121.83" cy="444.44" r="3" fill="#2563eb"/><circle cx="121.84" cy="443.87" r="3" fill="#2563eb"/><circle cx="137.12" cy="444.95" r="3" fill="#2563eb"/><circle cx="137.12" cy="444.57" r="3" fill="#2563eb"/><circle cx="137.14" cy="444.44" r="3" fill="#2563eb"/><circle cx="137.15" cy="443.57" r="3" fill="#2563eb"/><circle cx="152.51" cy="444.53" r="3" fill="#2563eb"/><circle cx="152.52" cy="444.14" r="3" fill="#2563eb"/><circle cx="152.53" cy="443.71" r="3" fill="#2563eb"/><circle cx="152.54" cy="442.95" r="3" fill="#2563eb"/><circle cx="167.99" cy="442.31" r="3" fill="#2563eb"/><circle cx="168.01" cy="441.46" r="3" fill="#2563eb"/><circle cx="168.03" cy="442.10" r="3" fill="#2563eb"/><circle cx="168.07" cy="442.39" r="3" fill="#2563eb"/><circle cx="183.51" cy="441.37" r="3" fill="#2563eb"/><circle cx="183.52" cy="440.92" r="3" fill="#2563eb"/><circle cx="183.52" cy="441.96" r="3" fill="#2563eb"/><circle cx="183.52" cy="441.73" r="3" fill="#2563eb"/><circle cx="198.92" cy="443.07" r="3" fill="#2563eb"/><circle cx="198.92" cy="443.44" r="3" fill="#2563eb"/><circle cx="198.96" cy="442.04" r="3" fill="#2563eb"/><circle cx="198.99" cy="442.40" r="3" fill="#2563eb"/><circle cx="214.61" cy="430.66" r="3" fill="#2563eb"/><circle cx="214.63" cy="429.67" r="3" fill="#2563eb"/><circle cx="214.63" cy="430.00" r="3" fill="#2563eb"/><circle cx="214.79" cy="427.78" r="3" fill="#2563eb"/><circle cx="230.07" cy="442.41" r="3" fill="#2563eb"/><circle cx="230.08" cy="441.94" r="3" fill="#2563eb"/><circle cx="230.09" cy="442.27" r="3" fill="#2563eb"/><circle cx="230.09" cy="442.46" r="3" fill="#2563eb"/><circle cx="245.43" cy="444.80" r="3" fill="#2563eb"/><circle cx="245.44" cy="444.77" r="3" fill="#2563eb"/><circle cx="245.45" cy="443.75" r="3" fill="#2563eb"/><circle cx="245.46" cy="444.06" r="3" fill="#2563eb"/><circle cx="261.01" cy="440.14" r="3" fill="#2563eb"/><circle cx="261.02" cy="440.59" r="3" fill="#2563eb"/><circle cx="261.05" cy="440.08" r="3" fill="#2563eb"/><circle cx="261.05" cy="439.27" r="3" fill="#2563eb"/><circle cx="276.60" cy="440.84" r="3" fill="#2563eb"/><circle cx="276.62" cy="439.57" r="3" fill="#2563eb"/><circle cx="276.66" cy="439.44" r="3" fill="#2563eb"/><circle cx="276.67" cy="439.04" r="3" fill="#2563eb"/><circle cx="291.96" cy="445.57" r="3" fill="#2563eb"/><circle cx="291.97" cy="443.92" r="3" fill="#2563eb"/><circle cx="291.98" cy="445.08" r="3" fill="#2563eb"/><circle cx="291.99" cy="444.15" r="3" fill="#2563eb"/><circle cx="307.34" cy="444.34" r="3" fill="#2563eb"/><circle cx="307.35" cy="444.16" r="3" fill="#2563eb"/><circle cx="307.36" cy="444.35" r="3" fill="#2563eb"/><circle cx="307.36" cy="443.10" r="3" fill="#2563eb"/><circle cx="325.18" cy="393.15" r="3" fill="#2563eb"/><circle cx="325.21" cy="393.28" r="3" fill="#2563eb"/><circle cx="325.22" cy="394.02" r="3" fill="#2563eb"/><circle cx="325.22" cy="393.83" r="3" fill="#2563eb"/><circle cx="340.51" cy="446.56" r="3" fill="#2563eb"/><circle cx="340.52" cy="445.69" r="3" fill="#2563eb"/><circle cx="340.53" cy="445.93" r="3" fill="#2563eb"/><circle cx="340.53" cy="446.42" r="3" fill="#2563eb"/><circle cx="355.63" cy="448.71" r="3" fill="#2563eb"/><circle cx="355.63" cy="448.76" r="3" fill="#2563eb"/><circle cx="355.64" cy="448.92" r="3" fill="#2563eb"/><circle cx="355.64" cy="449.21" r="3" fill="#2563eb"/><circle cx="370.83" cy="447.16" r="3" fill="#2563eb"/><circle cx="370.83" cy="446.63" r="3" fill="#2563eb"/><circle cx="370.84" cy="446.55" r="3" fill="#2563eb"/><circle cx="370.86" cy="447.15" r="3" fill="#2563eb"/><circle cx="385.83" cy="444.02" r="3" fill="#2563eb"/><circle cx="385.84" cy="443.52" r="3" fill="#2563eb"/><circle cx="385.84" cy="442.31" r="3" fill="#2563eb"/><circle cx="386.11" cy="438.05" r="3" fill="#2563eb"/><circle cx="400.87" cy="449.89" r="3" fill="#2563eb"/><circle cx="400.90" cy="448.85" r="3" fill="#2563eb"/><circle cx="400.90" cy="449.11" r="3" fill="#2563eb"/><circle cx="400.91" cy="449.30" r="3" fill="#2563eb"/><circle cx="415.96" cy="448.90" r="3" fill="#2563eb"/><circle cx="415.97" cy="449.14" r="3" fill="#2563eb"/><circle cx="415.97" cy="449.38" r="3" fill="#2563eb"/><circle cx="415.98" cy="449.65" r="3" fill="#2563eb"/><circle cx="431.14" cy="447.98" r="3" fill="#2563eb"/><circle cx="431.16" cy="446.99" r="3" fill="#2563eb"/><circle cx="431.16" cy="447.22" r="3" fill="#2563eb"/><circle cx="431.17" cy="446.51" r="3" fill="#2563eb"/><circle cx="446.23" cy="449.51" r="3" fill="#2563eb"/><circle cx="446.24" cy="449.40" r="3" fill="#2563eb"/><circle cx="446.25" cy="448.31" r="3" fill="#2563eb"/><circle cx="446.26" cy="448.71" r="3" fill="#2563eb"/><circle cx="461.80" cy="443.01" r="3" fill="#2563eb"/><circle cx="461.82" cy="443.55" r="3" fill="#2563eb"/><circle cx="461.84" cy="442.36" r="3" fill="#2563eb"/><circle cx="461.84" cy="442.65" r="3" fill="#2563eb"/><circle cx="477.25" cy="443.07" r="3" fill="#2563eb"/><circle cx="477.26" cy="442.12" r="3" fill="#2563eb"/><circle cx="477.27" cy="442.11" r="3" fill="#2563eb"/><circle cx="477.28" cy="442.51" r="3" fill="#2563eb"/><circle cx="492.65" cy="443.95" r="3" fill="#2563eb"/><circle cx="492.66" cy="443.21" r="3" fill="#2563eb"/><circle cx="492.67" cy="444.18" r="3" fill="#2563eb"/><circle cx="492.67" cy="444.30" r="3" fill="#2563eb"/><circle cx="508.50" cy="435.05" r="3" fill="#2563eb"/><circle cx="508.50" cy="438.87" r="3" fill="#2563eb"/><circle cx="508.52" cy="438.05" r="3" fill="#2563eb"/><circle cx="508.54" cy="435.40" r="3" fill="#2563eb"/><circle cx="524.04" cy="441.75" r="3" fill="#2563eb"/><circle cx="524.06" cy="440.95" r="3" fill="#2563eb"/><circle cx="524.06" cy="440.43" r="3" fill="#2563eb"/><circle cx="524.07" cy="442.27" r="3" fill="#2563eb"/><circle cx="540.61" cy="421.56" r="3" fill="#2563eb"/><circle cx="540.63" cy="421.62" r="3" fill="#2563eb"/><circle cx="540.64" cy="421.83" r="3" fill="#2563eb"/><circle cx="540.65" cy="421.64" r="3" fill="#2563eb"/><circle cx="555.93" cy="446.23" r="3" fill="#2563eb"/><circle cx="555.93" cy="445.45" r="3" fill="#2563eb"/><circle cx="555.94" cy="445.34" r="3" fill="#2563eb"/><circle cx="556.10" cy="441.97" r="3" fill="#2563eb"/><circle cx="571.30" cy="444.72" r="3" fill="#2563eb"/><circle cx="571.30" cy="444.09" r="3" fill="#2563eb"/><circle cx="571.37" cy="442.63" r="3" fill="#2563eb"/><circle cx="571.38" cy="443.01" r="3" fill="#2563eb"/><circle cx="587.38" cy="431.91" r="3" fill="#2563eb"/><circle cx="587.41" cy="431.68" r="3" fill="#2563eb"/><circle cx="587.42" cy="429.95" r="3" fill="#2563eb"/><circle cx="587.43" cy="430.46" r="3" fill="#2563eb"/><circle cx="602.68" cy="445.71" r="3" fill="#2563eb"/><circle cx="602.70" cy="444.93" r="3" fill="#2563eb"/><circle cx="602.70" cy="445.60" r="3" fill="#2563eb"/><circle cx="602.71" cy="445.65" r="3" fill="#2563eb"/><circle cx="618.97" cy="419.47" r="3" fill="#2563eb"/><circle cx="619.00" cy="419.57" r="3" fill="#2563eb"/><circle cx="619.00" cy="418.95" r="3" fill="#2563eb"/><circle cx="619.05" cy="418.87" r="3" fill="#2563eb"/><circle cx="654.51" cy="331.64" r="3" fill="#2563eb"/><circle cx="654.53" cy="329.62" r="3" fill="#2563eb"/><circle cx="654.54" cy="330.38" r="3" fill="#2563eb"/><circle cx="654.54" cy="330.06" r="3" fill="#2563eb"/><circle cx="669.60" cy="448.64" r="3" fill="#2563eb"/><circle cx="669.62" cy="449.15" r="3" fill="#2563eb"/><circle cx="669.64" cy="448.87" r="3" fill="#2563eb"/><circle cx="669.64" cy="448.49" r="3" fill="#2563eb"/><circle cx="684.60" cy="450.45" r="3" fill="#2563eb"/><circle cx="684.61" cy="450.61" r="3" fill="#2563eb"/><circle cx="684.62" cy="450.69" r="3" fill="#2563eb"/><circle cx="684.62" cy="449.71" r="3" fill="#2563eb"/><circle cx="699.51" cy="452.03" r="3" fill="#2563eb"/><circle cx="699.52" cy="452.09" r="3" fill="#2563eb"/><circle cx="699.56" cy="451.10" r="3" fill="#2563eb"/><circle cx="699.56" cy="451.52" r="3" fill="#2563eb"/><circle cx="714.63" cy="448.47" r="3" fill="#2563eb"/><circle cx="714.63" cy="448.12" r="3" fill="#2563eb"/><circle cx="714.63" cy="448.19" r="3" fill="#2563eb"/><circle cx="714.67" cy="447.68" r="3" fill="#2563eb"/><circle cx="729.97" cy="444.15" r="3" fill="#2563eb"/><circle cx="730.12" cy="441.88" r="3" fill="#2563eb"/><circle cx="730.13" cy="441.52" r="3" fill="#2563eb"/><circle cx="730.13" cy="441.27" r="3" fill="#2563eb"/><circle cx="745.23" cy="440.20" r="3" fill="#2563eb"/><circle cx="745.23" cy="439.58" r="3" fill="#2563eb"/><circle cx="745.24" cy="439.67" r="3" fill="#2563eb"/><circle cx="745.25" cy="438.76" r="3" fill="#2563eb"/><circle cx="760.29" cy="449.75" r="3" fill="#2563eb"/><circle cx="760.29" cy="449.42" r="3" fill="#2563eb"/><circle cx="760.30" cy="449.63" r="3" fill="#2563eb"/><circle cx="760.30" cy="448.88" r="3" fill="#2563eb"/><circle cx="775.76" cy="442.76" r="3" fill="#2563eb"/><circle cx="775.78" cy="441.70" r="3" fill="#2563eb"/><circle cx="775.81" cy="442.86" r="3" fill="#2563eb"/><circle cx="775.83" cy="442.63" r="3" fill="#2563eb"/><circle cx="791.53" cy="436.42" r="3" fill="#2563eb"/><circle cx="791.54" cy="436.88" r="3" fill="#2563eb"/><circle cx="791.55" cy="436.85" r="3" fill="#2563eb"/><circle cx="791.55" cy="436.18" r="3" fill="#2563eb"/><circle cx="806.76" cy="446.82" r="3" fill="#2563eb"/><circle cx="806.77" cy="447.49" r="3" fill="#2563eb"/><circle cx="806.78" cy="446.19" r="3" fill="#2563eb"/><circle cx="806.78" cy="446.40" r="3" fill="#2563eb"/><circle cx="822.41" cy="438.72" r="3" fill="#2563eb"/><circle cx="822.42" cy="438.12" r="3" fill="#2563eb"/><circle cx="822.43" cy="438.58" r="3" fill="#2563eb"/><circle cx="822.47" cy="437.87" r="3" fill="#2563eb"/><circle cx="839.60" cy="410.32" r="3" fill="#2563eb"/><circle cx="839.60" cy="412.05" r="3" fill="#2563eb"/><circle cx="839.63" cy="410.88" r="3" fill="#2563eb"/><circle cx="839.65" cy="410.32" r="3" fill="#2563eb"/><circle cx="854.69" cy="449.75" r="3" fill="#2563eb"/><circle cx="854.69" cy="449.62" r="3" fill="#2563eb"/><circle cx="854.70" cy="449.01" r="3" fill="#2563eb"/><circle cx="854.71" cy="448.57" r="3" fill="#2563eb"/><circle cx="869.97" cy="445.79" r="3" fill="#2563eb"/><circle cx="869.98" cy="445.23" r="3" fill="#2563eb"/><circle cx="869.99" cy="445.64" r="3" fill="#2563eb"/><circle cx="870.00" cy="445.62" r="3" fill="#2563eb"/>
  <text x="70" y="480" font-family="Menlo, monospace" font-size="12" fill="#374151">0 ms</text>
  <text x="870" y="480" text-anchor="end" font-family="Menlo, monospace" font-size="12" fill="#374151">1163.4 ms</text>
  <text x="36" y="460" font-family="Menlo, monospace" font-size="12" fill="#374151">0 ms</text>
  <text x="22" y="44" font-family="Menlo, monospace" font-size="12" fill="#374151">33.1 ms</text>
  <text x="450" y="502" font-family="Menlo, monospace" font-size="12" fill="#374151">Time Since Start (ms)</text>
  <text x="20" y="260" transform="rotate(-90 20 260)" font-family="Menlo, monospace" font-size="12" fill="#374151">Latency (ms)</text>
</svg>