<?xml version="1.0" encoding="UTF-8"?>
<svg xmlns="http://www.w3.org/2000/svg" width="900" height="520" viewBox="0 0 900 520">
  <rect width="100%" height="100%" fill="#fffdf7"/>
  <text x="70" y="24" font-family="Menlo, monospace" font-size="18" fill="#1f2937">Latency CDF</text>
  <line x1="70" y1="460" x2="870" y2="460" stroke="#111827" stroke-width="1.5"/>
  <line x1="70" y1="460" x2="70" y2="40" stroke="#111827" stroke-width="1.5"/>
  <polyline fill="none" stroke="#0f766e" stroke-width="2" points="85.77,457.90 85.90,455.80 86.91,453.70 87.75,451.60 88.59,449.50 88.74,447.40 89.07,445.30 90.18,443.20 90.46,441.10 90.46,439.00 90.54,436.90 90.66,434.80 90.69,432.70 90.71,430.60 90.94,428.50 91.12,426.40 91.14,424.30 91.19,422.20 91.35,420.10 91.52,418.00 91.65,415.90 91.67,413.80 91.73,411.70 91.93,409.60 92.11,407.50 92.16,405.40 92.18,403.30 92.21,401.20 92.26,399.10 92.43,397.00 92.54,394.90 92.54,392.80 92.66,390.70 92.81,388.60 92.97,386.50 93.02,384.40 93.32,382.30 93.57,380.20 93.70,378.10 93.98,376.00 94.59,373.90 94.97,371.80 95.50,369.70 95.62,367.60 95.65,365.50 95.95,363.40 96.31,361.30 96.69,359.20 96.81,357.10 96.84,355.00 96.92,352.90 97.09,350.80 97.14,348.70 97.47,346.60 97.55,344.50 98.08,342.40 98.36,340.30 98.51,338.20 98.56,336.10 98.64,334.00 98.66,331.90 98.69,329.80 98.74,327.70 98.79,325.60 99.04,323.50 99.25,321.40 99.47,319.30 99.78,317.20 100.03,315.10 100.08,313.00 100.13,310.90 100.33,308.80 100.39,306.70 100.46,304.60 100.49,302.50 100.79,300.40 100.87,298.30 101.04,296.20 101.04,294.10 101.22,292.00 101.25,289.90 101.32,287.80 101.58,285.70 101.60,283.60 101.63,281.50 101.63,279.40 101.65,277.30 101.75,275.20 101.80,273.10 101.88,271.00 102.03,268.90 102.08,266.80 102.18,264.70 102.44,262.60 102.51,260.50 102.79,258.40 102.82,256.30 102.89,254.20 102.97,252.10 103.04,250.00 103.50,247.90 103.73,245.80 103.75,243.70 103.78,241.60 103.78,239.50 103.90,237.40 103.90,235.30 104.03,233.20 104.21,231.10 104.41,229.00 104.61,226.90 104.66,224.80 104.66,222.70 104.89,220.60 104.99,218.50 105.09,216.40 105.12,214.30 105.15,212.20 105.20,210.10 105.30,208.00 105.30,205.90 105.37,203.80 105.37,201.70 105.68,199.60 105.70,197.50 105.73,195.40 105.83,193.30 105.98,191.20 106.01,189.10 106.03,187.00 106.16,184.90 106.34,182.80 106.41,180.70 106.46,178.60 106.51,176.50 106.87,174.40 106.99,172.30 107.17,170.20 107.37,168.10 107.50,166.00 108.01,163.90 108.08,161.80 108.23,159.70 108.74,157.60 109.04,155.50 109.50,153.40 109.63,151.30 109.75,149.20 110.56,147.10 110.74,145.00 110.77,142.90 111.02,140.80 111.37,138.70 111.83,136.60 112.16,134.50 112.39,132.40 112.46,130.30 112.74,128.20 113.65,126.10 113.81,124.00 113.81,121.90 114.16,119.80 116.13,117.70 116.19,115.60 117.05,113.50 117.53,111.40 119.10,109.30 119.78,107.20 126.06,105.10 126.52,103.00 128.54,100.90 128.95,98.80 129.86,96.70 129.96,94.60 130.52,92.50 134.29,90.40 146.17,88.30 146.54,86.20 146.60,84.10 146.70,82.00 150.67,79.90 150.87,77.80 151.91,75.70 152.06,73.60 165.69,71.50 168.02,69.40 169.13,67.30 169.13,65.20 201.67,63.10 202.05,61.00 203.14,58.90 203.39,56.80 326.15,54.70 328.65,52.60 329.29,50.50 330.17,48.40 830.18,46.30 830.23,44.20 830.84,42.10 831.90,40.00 "/>
  <text x="70" y="480" font-family="Menlo, monospace" font-size="12" fill="#374151">0 ms</text>
  <text x="870" y="480" text-anchor="end" font-family="Menlo, monospace" font-size="12" fill="#374151">31.6 ms</text>
  <text x="42" y="460" font-family="Menlo, monospace" font-size="12" fill="#374151">0%</text>
  <text x="32" y="44" font-family="Menlo, monospace" font-size="12" fill="#374151">100%</text>
  <text x="450" y="502" font-family="Menlo, monospace" font-size="12" fill="#374151">Latency (ms)</text>
  <text x="20" y="260" transform="rotate(-90 20 260)" font-family="Menlo, monospace" font-size="12" fill="#374151">CDF</text>
  
</svg>