<?xml version="1.0" encoding="UTF-8"?>
<svg xmlns="http://www.w3.org/2000/svg" width="900" height="520" viewBox="0 0 900 520">
  <rect width="100%" height="100%" fill="#fffdf7"/>
  <text x="70" y="24" font-family="Menlo, monospace" font-size="18" fill="#1f2937">Latency CDF</text>
  <line x1="70" y1="460" x2="870" y2="460" stroke="#111827" stroke-width="1.5"/>
  <line x1="70" y1="460" x2="70" y2="40" stroke="#111827" stroke-width="1.5"/>
  <polyline fill="none" stroke="#0f766e" stroke-width="2" points="70.31,453.00 70.35,446.00 70.36,439.00 70.36,432.00 70.36,425.00 70.37,418.00 70.37,411.00 70.37,404.00 70.37,397.00 70.38,390.00 70.38,383.00 70.38,376.00 70.39,369.00 70.40,362.00 70.40,355.00 70.40,348.00 70.42,341.00 70.42,334.00 70.43,327.00 70.44,320.00 70.46,313.00 70.46,306.00 70.47,299.00 70.47,292.00 70.48,285.00 70.50,278.00 70.50,271.00 70.51,264.00 70.51,257.00 70.52,250.00 70.52,243.00 70.52,236.00 70.52,229.00 70.53,222.00 70.53,215.00 70.54,208.00 70.56,201.00 70.56,194.00 70.57,187.00 70.57,180.00 70.58,173.00 70.58,166.00 70.58,159.00 70.59,152.00 70.59,145.00 70.59,138.00 70.61,131.00 70.61,124.00 70.61,117.00 70.62,110.00 70.62,103.00 70.63,96.00 70.64,89.00 70.74,82.00 70.79,75.00 70.87,68.00 70.91,61.00 70.93,54.00 184.53,47.00 831.90,40.00 "/>
  <text x="70" y="480" font-family="Menlo, monospace" font-size="12" fill="#374151">0 ms</text>
  <text x="870" y="480" text-anchor="end" font-family="Menlo, monospace" font-size="12" fill="#374151">870.5 ms</text>
  <text x="42" y="460" font-family="Menlo, monospace" font-size="12" fill="#374151">0%</text>
  <text x="32" y="44" font-family="Menlo, monospace" font-size="12" fill="#374151">100%</text>
  <text x="450" y="502" font-family="Menlo, monospace" font-size="12" fill="#374151">Latency (ms)</text>
  <text x="20" y="260" transform="rotate(-90 20 260)" font-family="Menlo, monospace" font-size="12" fill="#374151">CDF</text>
  <line x1="886.03" y1="40" x2="886.03" y2="460" stroke="#dc2626" stroke-width="1.5" stroke-dasharray="6 4"/>
  <text x="894.03" y="54" font-family="Menlo, monospace" font-size="12" fill="#b91c1c">failover 887.9 ms</text>
</svg>