<?xml version="1.0" encoding="UTF-8"?>
<svg xmlns="http://www.w3.org/2000/svg" width="900" height="520" viewBox="0 0 900 520">
  <rect width="100%" height="100%" fill="#fffdf7"/>
  <text x="70" y="24" font-family="Menlo, monospace" font-size="18" fill="#1f2937">Latency Timeline</text>
  <rect x="107.30" y="40" width="751.56" height="420" fill="#fca5a5" fill-opacity="0.25"/>
  <text x="113.30" y="54" font-family="Menlo, monospace" font-size="12" fill="#991b1b">failover window</text>
  <line x1="70" y1="460" x2="870" y2="460" stroke="#111827" stroke-width="1.5"/>
  <line x1="70" y1="460" x2="70" y2="40" stroke="#111827" stroke-width="1.5"/>
  <circle cx="94.12" cy="446.96" r="3" fill="#2563eb"/><circle cx="94.70" cy="459.68" r="3" fill="#2563eb"/><circle cx="95.24" cy="459.71" r="3" fill="#2563eb"/><circle cx="95.78" cy="459.71" r="3" fill="#2563eb"/><circle cx="96.27" cy="459.74" r="3" fill="#2563eb"/><circle cx="96.73" cy="459.75" r="3" fill="#2563eb"/><circle cx="97.21" cy="459.74" r="3" fill="#2563eb"/><circle cx="97.67" cy="459.75" r="3" fill="#2563eb"/><circle cx="98.17" cy="459.73" r="3" fill="#2563eb"/><circle cx="98.60" cy="459.77" r="3" fill="#2563eb"/><circle cx="99.03" cy="459.76" r="3" fill="#2563eb"/><circle cx="99.54" cy="459.73" r="3" fill="#2563eb"/><circle cx="99.99" cy="459.76" r="3" fill="#2563eb"/><circle cx="100.47" cy="459.73" r="3" fill="#2563eb"/><circle cx="100.95" cy="459.74" r="3" fill="#2563eb"/><circle cx="101.38" cy="459.77" r="3" fill="#2563eb"/><circle cx="101.82" cy="459.76" r="3" fill="#2563eb"/><circle cx="102.24" cy="459.77" r="3" fill="#2563eb"/><circle cx="102.67" cy="459.76" r="3" fill="#2563eb"/><circle cx="103.12" cy="459.76" r="3" fill="#2563eb"/><circle cx="103.51" cy="459.79" r="3" fill="#2563eb"/><circle cx="103.92" cy="459.78" r="3" fill="#2563eb"/><circle cx="104.40" cy="459.74" r="3" fill="#2563eb"/><circle cx="104.80" cy="459.78" r="3" fill="#2563eb"/><circle cx="105.20" cy="459.79" r="3" fill="#2563eb"/><circle cx="105.61" cy="459.78" r="3" fill="#2563eb"/><circle cx="106.03" cy="459.77" r="3" fill="#2563eb"/><circle cx="106.48" cy="459.76" r="3" fill="#2563eb"/><circle cx="106.86" cy="459.79" r="3" fill="#2563eb"/><circle cx="107.29" cy="459.77" r="3" fill="#2563eb"/><circle cx="858.85" cy="78.18" r="3" fill="#2563eb"/><circle cx="859.73" cy="459.53" r="3" fill="#2563eb"/><circle cx="860.14" cy="459.78" r="3" fill="#2563eb"/><circle cx="860.49" cy="459.81" r="3" fill="#2563eb"/><circle cx="860.85" cy="459.80" r="3" fill="#2563eb"/><circle cx="861.22" cy="459.80" r="3" fill="#2563eb"/><circle cx="861.57" cy="459.81" r="3" fill="#2563eb"/><circle cx="862.00" cy="459.76" r="3" fill="#2563eb"/><circle cx="862.34" cy="459.82" r="3" fill="#2563eb"/><circle cx="862.78" cy="459.76" r="3" fill="#2563eb"/><circle cx="863.14" cy="459.80" r="3" fill="#2563eb"/><circle cx="863.49" cy="459.81" r="3" fill="#2563eb"/><circle cx="863.83" cy="459.82" r="3" fill="#2563eb"/><circle cx="864.14" cy="459.83" r="3" fill="#2563eb"/><circle cx="864.48" cy="459.81" r="3" fill="#2563eb"/><circle cx="864.84" cy="459.80" r="3" fill="#2563eb"/><circle cx="865.22" cy="459.80" r="3" fill="#2563eb"/><circle cx="865.61" cy="459.79" r="3" fill="#2563eb"/><circle cx="865.95" cy="459.81" r="3" fill="#2563eb"/><circle cx="866.44" cy="459.74" r="3" fill="#2563eb"/><circle cx="866.77" cy="459.82" r="3" fill="#2563eb"/><circle cx="867.20" cy="459.76" r="3" fill="#2563eb"/><circle cx="867.49" cy="459.84" r="3" fill="#2563eb"/><circle cx="867.84" cy="459.81" r="3" fill="#2563eb"/><circle cx="868.19" cy="459.81" r="3" fill="#2563eb"/><circle cx="868.69" cy="459.73" r="3" fill="#2563eb"/><circle cx="869.06" cy="459.80" r="3" fill="#2563eb"/><circle cx="869.32" cy="459.86" r="3" fill="#2563eb"/><circle cx="869.68" cy="459.81" r="3" fill="#2563eb"/><circle cx="870.00" cy="459.83" r="3" fill="#2563eb"/>
  <text x="70" y="480" font-family="Menlo, monospace" font-size="12" fill="#374151">0 ms</text>
  <text x="870" y="480" text-anchor="end" font-family="Menlo, monospace" font-size="12" fill="#374151">874.7 ms</text>
  <text x="36" y="460" font-family="Menlo, monospace" font-size="12" fill="#374151">0 ms</text>
  <text x="22" y="44" font-family="Menlo, monospace" font-size="12" fill="#374151">841.4 ms</text>
  <text x="450" y="502" font-family="Menlo, monospace" font-size="12" fill="#374151">Time Since Start (ms)</text>
  <text x="20" y="260" transform="rotate(-90 20 260)" font-family="Menlo, monospace" font-size="12" fill="#374151">Latency (ms)</text>
</svg>