<?xml version="1.0" encoding="UTF-8"?>
<svg xmlns="http://www.w3.org/2000/svg" width="900" height="520" viewBox="0 0 900 520">
  <rect width="100%" height="100%" fill="#fffdf7"/>
  <text x="70" y="24" font-family="Menlo, monospace" font-size="18" fill="#1f2937">Latency Timeline</text>
  <rect x="443.58" y="40" width="82.98" height="420" fill="#fca5a5" fill-opacity="0.25"/>
  <text x="449.58" y="54" font-family="Menlo, monospace" font-size="12" fill="#991b1b">failover window</text>
  <line x1="70" y1="460" x2="870" y2="460" stroke="#111827" stroke-width="1.5"/>
  <line x1="70" y1="460" x2="70" y2="40" stroke="#111827" stroke-width="1.5"/>
  <circle cx="104.74" cy="292.05" r="3" fill="#2563eb"/><circle cx="138.78" cy="295.36" r="3" fill="#2563eb"/><circle cx="173.09" cy="294.10" r="3" fill="#2563eb"/><circle cx="208.48" cy="288.86" r="3" fill="#2563eb"/><circle cx="242.88" cy="293.67" r="3" fill="#2563eb"/><circle cx="287.74" cy="243.06" r="3" fill="#2563eb"/><circle cx="331.59" cy="247.96" r="3" fill="#2563eb"/><circle cx="367.51" cy="286.32" r="3" fill="#2563eb"/><circle cx="403.72" cy="284.91" r="3" fill="#2563eb"/><circle cx="443.58" cy="267.23" r="3" fill="#2563eb"/><circle cx="526.56" cy="78.18" r="3" fill="#2563eb"/><circle cx="560.79" cy="294.47" r="3" fill="#2563eb"/><circle cx="600.33" cy="268.80" r="3" fill="#2563eb"/><circle cx="636.68" cy="284.21" r="3" fill="#2563eb"/><circle cx="675.30" cy="273.25" r="3" fill="#2563eb"/><circle cx="714.48" cy="270.57" r="3" fill="#2563eb"/><circle cx="750.28" cy="286.86" r="3" fill="#2563eb"/><circle cx="788.57" cy="274.84" r="3" fill="#2563eb"/><circle cx="830.17" cy="258.86" r="3" fill="#2563eb"/><circle cx="870.00" cy="267.39" r="3" fill="#2563eb"/>
  <text x="70" y="480" font-family="Menlo, monospace" font-size="12" fill="#374151">0 ms</text>
  <text x="870" y="480" text-anchor="end" font-family="Menlo, monospace" font-size="12" fill="#374151">14498.8 ms</text>
  <text x="36" y="460" font-family="Menlo, monospace" font-size="12" fill="#374151">0 ms</text>
  <text x="22" y="44" font-family="Menlo, monospace" font-size="12" fill="#374151">1574.1 ms</text>
  <text x="450" y="502" font-family="Menlo, monospace" font-size="12" fill="#374151">Time Since Start (ms)</text>
  <text x="20" y="260" transform="rotate(-90 20 260)" font-family="Menlo, monospace" font-size="12" fill="#374151">Latency (ms)</text>
</svg>