<?xml version="1.0" encoding="UTF-8"?>
<svg xmlns="http://www.w3.org/2000/svg" width="900" height="520" viewBox="0 0 900 520">
  <rect width="100%" height="100%" fill="#fffdf7"/>
  <text x="70" y="24" font-family="Menlo, monospace" font-size="18" fill="#1f2937">Latency Timeline</text>
  <rect x="180.49" y="40" width="679.33" height="420" fill="#fca5a5" fill-opacity="0.25"/>
  <text x="186.49" y="54" font-family="Menlo, monospace" font-size="12" fill="#991b1b">failover window</text>
  <line x1="70" y1="460" x2="870" y2="460" stroke="#111827" stroke-width="1.5"/>
  <line x1="70" y1="460" x2="70" y2="40" stroke="#111827" stroke-width="1.5"/>
  <circle cx="165.49" cy="402.61" r="3" fill="#2563eb"/><circle cx="166.28" cy="459.53" r="3" fill="#2563eb"/><circle cx="166.80" cy="459.69" r="3" fill="#2563eb"/><circle cx="167.46" cy="459.60" r="3" fill="#2563eb"/><circle cx="167.98" cy="459.69" r="3" fill="#2563eb"/><circle cx="168.47" cy="459.71" r="3" fill="#2563eb"/><circle cx="168.90" cy="459.74" r="3" fill="#2563eb"/><circle cx="169.33" cy="459.74" r="3" fill="#2563eb"/><circle cx="169.85" cy="459.69" r="3" fill="#2563eb"/><circle cx="170.61" cy="459.54" r="3" fill="#2563eb"/><circle cx="171.34" cy="459.56" r="3" fill="#2563eb"/><circle cx="171.96" cy="459.63" r="3" fill="#2563eb"/><circle cx="172.44" cy="459.71" r="3" fill="#2563eb"/><circle cx="172.96" cy="459.69" r="3" fill="#2563eb"/><circle cx="173.47" cy="459.69" r="3" fill="#2563eb"/><circle cx="173.94" cy="459.72" r="3" fill="#2563eb"/><circle cx="174.44" cy="459.70" r="3" fill="#2563eb"/><circle cx="174.86" cy="459.75" r="3" fill="#2563eb"/><circle cx="175.35" cy="459.71" r="3" fill="#2563eb"/><circle cx="175.87" cy="459.69" r="3" fill="#2563eb"/><circle cx="176.27" cy="459.76" r="3" fill="#2563eb"/><circle cx="176.69" cy="459.75" r="3" fill="#2563eb"/><circle cx="177.19" cy="459.70" r="3" fill="#2563eb"/><circle cx="177.66" cy="459.72" r="3" fill="#2563eb"/><circle cx="178.09" cy="459.74" r="3" fill="#2563eb"/><circle cx="178.58" cy="459.71" r="3" fill="#2563eb"/><circle cx="179.05" cy="459.72" r="3" fill="#2563eb"/><circle cx="179.50" cy="459.73" r="3" fill="#2563eb"/><circle cx="180.04" cy="459.68" r="3" fill="#2563eb"/><circle cx="180.49" cy="459.73" r="3" fill="#2563eb"/><circle cx="859.82" cy="78.18" r="3" fill="#2563eb"/><circle cx="860.26" cy="459.73" r="3" fill="#2563eb"/><circle cx="860.70" cy="459.74" r="3" fill="#2563eb"/><circle cx="861.09" cy="459.77" r="3" fill="#2563eb"/><circle cx="861.41" cy="459.81" r="3" fill="#2563eb"/><circle cx="861.76" cy="459.79" r="3" fill="#2563eb"/><circle cx="862.19" cy="459.74" r="3" fill="#2563eb"/><circle cx="862.58" cy="459.77" r="3" fill="#2563eb"/><circle cx="862.94" cy="459.78" r="3" fill="#2563eb"/><circle cx="863.27" cy="459.80" r="3" fill="#2563eb"/><circle cx="863.66" cy="459.77" r="3" fill="#2563eb"/><circle cx="863.98" cy="459.81" r="3" fill="#2563eb"/><circle cx="864.30" cy="459.81" r="3" fill="#2563eb"/><circle cx="864.65" cy="459.79" r="3" fill="#2563eb"/><circle cx="864.96" cy="459.82" r="3" fill="#2563eb"/><circle cx="865.25" cy="459.82" r="3" fill="#2563eb"/><circle cx="865.56" cy="459.82" r="3" fill="#2563eb"/><circle cx="865.87" cy="459.81" r="3" fill="#2563eb"/><circle cx="866.24" cy="459.78" r="3" fill="#2563eb"/><circle cx="866.55" cy="459.82" r="3" fill="#2563eb"/><circle cx="866.88" cy="459.80" r="3" fill="#2563eb"/><circle cx="867.21" cy="459.80" r="3" fill="#2563eb"/><circle cx="867.59" cy="459.77" r="3" fill="#2563eb"/><circle cx="868.02" cy="459.74" r="3" fill="#2563eb"/><circle cx="868.32" cy="459.82" r="3" fill="#2563eb"/><circle cx="868.61" cy="459.82" r="3" fill="#2563eb"/><circle cx="868.95" cy="459.80" r="3" fill="#2563eb"/><circle cx="869.21" cy="459.84" r="3" fill="#2563eb"/><circle cx="869.52" cy="459.82" r="3" fill="#2563eb"/><circle cx="870.00" cy="459.71" r="3" fill="#2563eb"/>
  <text x="70" y="480" font-family="Menlo, monospace" font-size="12" fill="#374151">0 ms</text>
  <text x="870" y="480" text-anchor="end" font-family="Menlo, monospace" font-size="12" fill="#374151">1045.6 ms</text>
  <text x="36" y="460" font-family="Menlo, monospace" font-size="12" fill="#374151">0 ms</text>
  <text x="22" y="44" font-family="Menlo, monospace" font-size="12" fill="#374151">911.9 ms</text>
  <text x="450" y="502" font-family="Menlo, monospace" font-size="12" fill="#374151">Time Since Start (ms)</text>
  <text x="20" y="260" transform="rotate(-90 20 260)" font-family="Menlo, monospace" font-size="12" fill="#374151">Latency (ms)</text>
</svg>