<?xml version="1.0" encoding="UTF-8"?>
<svg xmlns="http://www.w3.org/2000/svg" width="900" height="520" viewBox="0 0 900 520">
  <rect width="100%" height="100%" fill="#fffdf7"/>
  <text x="70" y="24" font-family="Menlo, monospace" font-size="18" fill="#1f2937">Latency CDF</text>
  <line x1="70" y1="460" x2="870" y2="460" stroke="#111827" stroke-width="1.5"/>
  <line x1="70" y1="460" x2="70" y2="40" stroke="#111827" stroke-width="1.5"/>
  <polyline fill="none" stroke="#0f766e" stroke-width="2" points="87.48,457.90 88.62,455.80 88.77,453.70 89.11,451.60 89.55,449.50 89.63,447.40 90.07,445.30 90.10,443.20 90.25,441.10 90.51,439.00 90.51,436.90 90.67,434.80 90.72,432.70 90.74,430.60 90.77,428.50 90.85,426.40 90.87,424.30 90.87,422.20 90.92,420.10 91.08,418.00 91.11,415.90 91.26,413.80 91.26,411.70 91.39,409.60 91.42,407.50 91.44,405.40 91.47,403.30 91.47,401.20 91.55,399.10 91.57,397.00 91.62,394.90 91.65,392.80 91.68,390.70 91.73,388.60 91.78,386.50 91.81,384.40 91.86,382.30 91.88,380.20 91.91,378.10 91.99,376.00 92.04,373.90 92.14,371.80 92.17,369.70 92.20,367.60 92.25,365.50 92.25,363.40 92.25,361.30 92.27,359.20 92.27,357.10 92.33,355.00 92.43,352.90 92.58,350.80 92.58,348.70 92.66,346.60 92.69,344.50 92.71,342.40 92.71,340.30 92.79,338.20 93.05,336.10 93.10,334.00 93.13,331.90 93.49,329.80 93.54,327.70 93.96,325.60 94.01,323.50 94.04,321.40 94.14,319.30 94.30,317.20 94.43,315.10 94.50,313.00 94.53,310.90 95.18,308.80 95.20,306.70 95.77,304.60 96.06,302.50 96.14,300.40 96.40,298.30 96.45,296.20 96.66,294.10 96.73,292.00 96.78,289.90 96.86,287.80 97.02,285.70 97.04,283.60 97.38,281.50 97.43,279.40 97.54,277.30 97.54,275.20 97.59,273.10 97.59,271.00 97.64,268.90 97.67,266.80 97.74,264.70 97.74,262.60 97.85,260.50 97.93,258.40 98.00,256.30 98.11,254.20 98.13,252.10 98.16,250.00 98.16,247.90 98.21,245.80 98.29,243.70 98.39,241.60 98.42,239.50 98.52,237.40 98.65,235.30 98.91,233.20 99.01,231.10 99.17,229.00 99.27,226.90 99.38,224.80 99.46,222.70 99.61,220.60 99.61,218.50 99.66,216.40 99.77,214.30 99.77,212.20 99.87,210.10 99.97,208.00 100.05,205.90 100.10,203.80 100.13,201.70 100.16,199.60 100.31,197.50 100.34,195.40 100.47,193.30 100.52,191.20 100.75,189.10 100.99,187.00 101.22,184.90 101.24,182.80 101.50,180.70 101.53,178.60 101.56,176.50 101.82,174.40 101.87,172.30 102.18,170.20 102.26,168.10 102.39,166.00 102.85,163.90 103.01,161.80 103.58,159.70 104.02,157.60 104.33,155.50 104.64,153.40 104.90,151.30 106.22,149.20 106.33,147.10 106.43,145.00 106.46,142.90 107.13,140.80 107.65,138.70 107.73,136.60 107.75,134.50 107.88,132.40 108.14,130.30 108.38,128.20 109.10,126.10 109.31,124.00 109.44,121.90 110.09,119.80 110.16,117.70 110.50,115.60 110.61,113.50 110.76,111.40 111.41,109.30 111.43,107.20 111.62,105.10 112.24,103.00 112.26,100.90 112.52,98.80 114.49,96.70 114.88,94.60 114.96,92.50 115.53,90.40 115.77,88.30 116.00,86.20 116.47,84.10 117.42,82.00 118.23,79.90 119.01,77.80 119.63,75.70 120.22,73.60 120.51,71.50 121.63,69.40 121.83,67.30 121.96,65.20 128.89,63.10 142.78,61.00 144.37,58.90 146.28,56.80 146.62,54.70 151.08,52.60 154.68,50.50 158.96,48.40 830.40,46.30 831.13,44.20 831.15,42.10 831.90,40.00 "/>
  <text x="70" y="480" font-family="Menlo, monospace" font-size="12" fill="#374151">0 ms</text>
  <text x="870" y="480" text-anchor="end" font-family="Menlo, monospace" font-size="12" fill="#374151">30.9 ms</text>
  <text x="42" y="460" font-family="Menlo, monospace" font-size="12" fill="#374151">0%</text>
  <text x="32" y="44" font-family="Menlo, monospace" font-size="12" fill="#374151">100%</text>
  <text x="450" y="502" font-family="Menlo, monospace" font-size="12" fill="#374151">Latency (ms)</text>
  <text x="20" y="260" transform="rotate(-90 20 260)" font-family="Menlo, monospace" font-size="12" fill="#374151">CDF</text>
  <line x1="646.38" y1="40" x2="646.38" y2="460" stroke="#dc2626" stroke-width="1.5" stroke-dasharray="6 4"/>
  <text x="654.38" y="54" font-family="Menlo, monospace" font-size="12" fill="#b91c1c">failover 22.2 ms</text>
</svg>