<?xml version="1.0" encoding="UTF-8"?>
<svg xmlns="http://www.w3.org/2000/svg" width="900" height="520" viewBox="0 0 900 520">
  <rect width="100%" height="100%" fill="#fffdf7"/>
  <text x="70" y="24" font-family="Menlo, monospace" font-size="18" fill="#1f2937">Latency Timeline</text>
  <rect x="376.55" y="40" width="15.06" height="420" fill="#fca5a5" fill-opacity="0.25"/>
  <text x="382.55" y="54" font-family="Menlo, monospace" font-size="12" fill="#991b1b">failover window</text>
  <line x1="70" y1="460" x2="870" y2="460" stroke="#111827" stroke-width="1.5"/>
  <line x1="70" y1="460" x2="70" y2="40" stroke="#111827" stroke-width="1.5"/>
  <circle cx="89.98" cy="78.56" r="3" fill="#2563eb"/><circle cx="89.98" cy="78.94" r="3" fill="#2563eb"/><circle cx="89.99" cy="78.18" r="3" fill="#2563eb"/><circle cx="90.00" cy="78.57" r="3" fill="#2563eb"/><circle cx="104.81" cy="449.19" r="3" fill="#2563eb"/><circle cx="104.82" cy="449.54" r="3" fill="#2563eb"/><circle cx="104.82" cy="449.34" r="3" fill="#2563eb"/><circle cx="104.82" cy="448.85" r="3" fill="#2563eb"/><circle cx="119.64" cy="449.62" r="3" fill="#2563eb"/><circle cx="119.64" cy="449.60" r="3" fill="#2563eb"/><circle cx="119.65" cy="449.11" r="3" fill="#2563eb"/><circle cx="119.65" cy="448.89" r="3" fill="#2563eb"/><circle cx="134.07" cy="449.72" r="3" fill="#2563eb"/><circle cx="134.11" cy="448.81" r="3" fill="#2563eb"/><circle cx="134.11" cy="449.28" r="3" fill="#2563eb"/><circle cx="134.11" cy="449.05" r="3" fill="#2563eb"/><circle cx="148.98" cy="448.42" r="3" fill="#2563eb"/><circle cx="148.98" cy="447.90" r="3" fill="#2563eb"/><circle cx="148.99" cy="447.71" r="3" fill="#2563eb"/><circle cx="148.99" cy="448.20" r="3" fill="#2563eb"/><circle cx="163.79" cy="449.93" r="3" fill="#2563eb"/><circle cx="163.80" cy="449.51" r="3" fill="#2563eb"/><circle cx="163.81" cy="449.15" r="3" fill="#2563eb"/><circle cx="163.81" cy="449.85" r="3" fill="#2563eb"/><circle cx="179.38" cy="434.83" r="3" fill="#2563eb"/><circle cx="179.39" cy="435.44" r="3" fill="#2563eb"/><circle cx="179.39" cy="435.83" r="3" fill="#2563eb"/><circle cx="179.47" cy="434.13" r="3" fill="#2563eb"/><circle cx="194.61" cy="445.13" r="3" fill="#2563eb"/><circle cx="194.62" cy="441.39" r="3" fill="#2563eb"/><circle cx="194.63" cy="445.03" r="3" fill="#2563eb"/><circle cx="194.63" cy="445.24" r="3" fill="#2563eb"/><circle cx="209.61" cy="445.91" r="3" fill="#2563eb"/><circle cx="209.62" cy="446.20" r="3" fill="#2563eb"/><circle cx="209.62" cy="445.90" r="3" fill="#2563eb"/><circle cx="209.64" cy="446.10" r="3" fill="#2563eb"/><circle cx="224.64" cy="445.89" r="3" fill="#2563eb"/><circle cx="224.65" cy="445.08" r="3" fill="#2563eb"/><circle cx="224.66" cy="445.38" r="3" fill="#2563eb"/><circle cx="224.74" cy="443.54" r="3" fill="#2563eb"/><circle cx="239.67" cy="441.85" r="3" fill="#2563eb"/><circle cx="239.69" cy="443.17" r="3" fill="#2563eb"/><circle cx="239.70" cy="440.89" r="3" fill="#2563eb"/><circle cx="239.71" cy="442.64" r="3" fill="#2563eb"/><circle cx="254.51" cy="449.42" r="3" fill="#2563eb"/><circle cx="254.52" cy="449.64" r="3" fill="#2563eb"/><circle cx="254.53" cy="448.85" r="3" fill="#2563eb"/><circle cx="254.54" cy="448.96" r="3" fill="#2563eb"/><circle cx="269.52" cy="446.01" r="3" fill="#2563eb"/><circle cx="269.54" cy="446.14" r="3" fill="#2563eb"/><circle cx="269.55" cy="445.16" r="3" fill="#2563eb"/><circle cx="269.56" cy="445.86" r="3" fill="#2563eb"/><circle cx="284.60" cy="444.91" r="3" fill="#2563eb"/><circle cx="284.62" cy="445.77" r="3" fill="#2563eb"/><circle cx="284.62" cy="444.89" r="3" fill="#2563eb"/><circle cx="284.63" cy="445.08" r="3" fill="#2563eb"/><circle cx="299.02" cy="448.45" r="3" fill="#2563eb"/><circle cx="299.03" cy="448.41" r="3" fill="#2563eb"/><circle cx="299.04" cy="448.84" r="3" fill="#2563eb"/><circle cx="299.04" cy="448.62" r="3" fill="#2563eb"/><circle cx="314.04" cy="437.18" r="3" fill="#2563eb"/><circle cx="314.04" cy="437.70" r="3" fill="#2563eb"/><circle cx="314.06" cy="437.07" r="3" fill="#2563eb"/><circle cx="314.06" cy="436.23" r="3" fill="#2563eb"/><circle cx="329.53" cy="437.47" r="3" fill="#2563eb"/><circle cx="329.54" cy="436.71" r="3" fill="#2563eb"/><circle cx="329.57" cy="437.51" r="3" fill="#2563eb"/><circle cx="329.58" cy="436.95" r="3" fill="#2563eb"/><circle cx="344.84" cy="440.40" r="3" fill="#2563eb"/><circle cx="344.86" cy="439.87" r="3" fill="#2563eb"/><circle cx="344.87" cy="441.09" r="3" fill="#2563eb"/><circle cx="344.87" cy="440.30" r="3" fill="#2563eb"/><circle cx="359.90" cy="445.64" r="3" fill="#2563eb"/><circle cx="359.91" cy="445.82" r="3" fill="#2563eb"/><circle cx="359.93" cy="444.19" r="3" fill="#2563eb"/><circle cx="359.95" cy="444.80" r="3" fill="#2563eb"/><circle cx="376.24" cy="421.77" r="3" fill="#2563eb"/><circle cx="376.27" cy="421.60" r="3" fill="#2563eb"/><circle cx="376.41" cy="417.56" r="3" fill="#2563eb"/><circle cx="376.54" cy="415.42" r="3" fill="#2563eb"/><circle cx="391.61" cy="441.73" r="3" fill="#2563eb"/><circle cx="391.66" cy="439.65" r="3" fill="#2563eb"/><circle cx="391.67" cy="438.83" r="3" fill="#2563eb"/><circle cx="406.35" cy="447.38" r="3" fill="#2563eb"/><circle cx="406.37" cy="446.15" r="3" fill="#2563eb"/><circle cx="406.37" cy="447.76" r="3" fill="#2563eb"/><circle cx="420.74" cy="444.47" r="3" fill="#2563eb"/><circle cx="420.75" cy="444.81" r="3" fill="#2563eb"/><circle cx="420.76" cy="444.21" r="3" fill="#2563eb"/><circle cx="434.88" cy="449.55" r="3" fill="#2563eb"/><circle cx="434.89" cy="449.24" r="3" fill="#2563eb"/><circle cx="434.89" cy="449.16" r="3" fill="#2563eb"/><circle cx="434.89" cy="449.72" r="3" fill="#2563eb"/><circle cx="449.05" cy="450.20" r="3" fill="#2563eb"/><circle cx="449.05" cy="449.94" r="3" fill="#2563eb"/><circle cx="449.05" cy="449.59" r="3" fill="#2563eb"/><circle cx="449.06" cy="450.16" r="3" fill="#2563eb"/><circle cx="464.02" cy="446.90" r="3" fill="#2563eb"/><circle cx="464.03" cy="447.08" r="3" fill="#2563eb"/><circle cx="464.05" cy="445.97" r="3" fill="#2563eb"/><circle cx="464.05" cy="446.17" r="3" fill="#2563eb"/><circle cx="478.80" cy="450.42" r="3" fill="#2563eb"/><circle cx="478.80" cy="450.67" r="3" fill="#2563eb"/><circle cx="478.81" cy="451.24" r="3" fill="#2563eb"/><circle cx="478.83" cy="450.59" r="3" fill="#2563eb"/><circle cx="493.05" cy="448.68" r="3" fill="#2563eb"/><circle cx="493.05" cy="448.85" r="3" fill="#2563eb"/><circle cx="493.06" cy="448.23" r="3" fill="#2563eb"/><circle cx="493.06" cy="448.88" r="3" fill="#2563eb"/><circle cx="508.09" cy="445.76" r="3" fill="#2563eb"/><circle cx="508.10" cy="445.46" r="3" fill="#2563eb"/><circle cx="508.11" cy="446.04" r="3" fill="#2563eb"/><circle cx="508.12" cy="446.17" r="3" fill="#2563eb"/><circle cx="522.92" cy="449.27" r="3" fill="#2563eb"/><circle cx="522.92" cy="449.08" r="3" fill="#2563eb"/><circle cx="522.93" cy="449.54" r="3" fill="#2563eb"/><circle cx="522.93" cy="449.24" r="3" fill="#2563eb"/><circle cx="537.72" cy="448.62" r="3" fill="#2563eb"/><circle cx="537.72" cy="449.44" r="3" fill="#2563eb"/><circle cx="537.73" cy="449.02" r="3" fill="#2563eb"/><circle cx="537.83" cy="446.58" r="3" fill="#2563eb"/><circle cx="552.95" cy="435.13" r="3" fill="#2563eb"/><circle cx="552.97" cy="434.69" r="3" fill="#2563eb"/><circle cx="552.98" cy="434.02" r="3" fill="#2563eb"/><circle cx="552.99" cy="433.96" r="3" fill="#2563eb"/><circle cx="567.97" cy="446.25" r="3" fill="#2563eb"/><circle cx="567.99" cy="445.51" r="3" fill="#2563eb"/><circle cx="567.99" cy="445.33" r="3" fill="#2563eb"/><circle cx="568.00" cy="445.16" r="3" fill="#2563eb"/><circle cx="582.95" cy="446.77" r="3" fill="#2563eb"/><circle cx="582.95" cy="446.94" r="3" fill="#2563eb"/><circle cx="582.96" cy="446.28" r="3" fill="#2563eb"/><circle cx="583.00" cy="446.10" r="3" fill="#2563eb"/><circle cx="598.06" cy="444.73" r="3" fill="#2563eb"/><circle cx="598.07" cy="444.98" r="3" fill="#2563eb"/><circle cx="598.08" cy="443.77" r="3" fill="#2563eb"/><circle cx="598.09" cy="444.34" r="3" fill="#2563eb"/><circle cx="613.44" cy="438.69" r="3" fill="#2563eb"/><circle cx="613.46" cy="438.82" r="3" fill="#2563eb"/><circle cx="613.47" cy="439.91" r="3" fill="#2563eb"/><circle cx="613.47" cy="439.57" r="3" fill="#2563eb"/><circle cx="628.43" cy="447.37" r="3" fill="#2563eb"/><circle cx="628.45" cy="445.89" r="3" fill="#2563eb"/><circle cx="628.46" cy="446.60" r="3" fill="#2563eb"/><circle cx="628.49" cy="445.71" r="3" fill="#2563eb"/><circle cx="643.65" cy="442.80" r="3" fill="#2563eb"/><circle cx="643.66" cy="442.51" r="3" fill="#2563eb"/><circle cx="643.66" cy="441.74" r="3" fill="#2563eb"/><circle cx="643.68" cy="441.80" r="3" fill="#2563eb"/><circle cx="658.78" cy="443.87" r="3" fill="#2563eb"/><circle cx="658.78" cy="444.59" r="3" fill="#2563eb"/><circle cx="658.78" cy="444.03" r="3" fill="#2563eb"/><circle cx="658.79" cy="443.46" r="3" fill="#2563eb"/><circle cx="673.64" cy="448.63" r="3" fill="#2563eb"/><circle cx="673.64" cy="449.34" r="3" fill="#2563eb"/><circle cx="673.65" cy="448.90" r="3" fill="#2563eb"/><circle cx="673.66" cy="449.07" r="3" fill="#2563eb"/><circle cx="689.04" cy="439.24" r="3" fill="#2563eb"/><circle cx="689.06" cy="439.14" r="3" fill="#2563eb"/><circle cx="689.07" cy="439.70" r="3" fill="#2563eb"/><circle cx="689.08" cy="439.25" r="3" fill="#2563eb"/><circle cx="703.99" cy="447.95" r="3" fill="#2563eb"/><circle cx="703.99" cy="447.97" r="3" fill="#2563eb"/><circle cx="704.05" cy="446.20" r="3" fill="#2563eb"/><circle cx="704.05" cy="446.45" r="3" fill="#2563eb"/><circle cx="718.84" cy="449.03" r="3" fill="#2563eb"/><circle cx="718.84" cy="449.25" r="3" fill="#2563eb"/><circle cx="718.85" cy="448.76" r="3" fill="#2563eb"/><circle cx="718.85" cy="449.20" r="3" fill="#2563eb"/><circle cx="733.96" cy="440.77" r="3" fill="#2563eb"/><circle cx="733.98" cy="441.08" r="3" fill="#2563eb"/><circle cx="733.99" cy="441.13" r="3" fill="#2563eb"/><circle cx="734.01" cy="440.24" r="3" fill="#2563eb"/><circle cx="748.81" cy="448.64" r="3" fill="#2563eb"/><circle cx="748.81" cy="449.14" r="3" fill="#2563eb"/><circle cx="748.82" cy="448.68" r="3" fill="#2563eb"/><circle cx="748.82" cy="448.84" r="3" fill="#2563eb"/><circle cx="763.94" cy="443.84" r="3" fill="#2563eb"/><circle cx="763.96" cy="444.90" r="3" fill="#2563eb"/><circle cx="763.96" cy="444.20" r="3" fill="#2563eb"/><circle cx="763.97" cy="442.95" r="3" fill="#2563eb"/><circle cx="779.78" cy="430.49" r="3" fill="#2563eb"/><circle cx="780.16" cy="423.53" r="3" fill="#2563eb"/><circle cx="780.16" cy="422.73" r="3" fill="#2563eb"/><circle cx="780.37" cy="419.37" r="3" fill="#2563eb"/><circle cx="794.67" cy="448.58" r="3" fill="#2563eb"/><circle cx="794.68" cy="447.72" r="3" fill="#2563eb"/><circle cx="794.68" cy="447.82" r="3" fill="#2563eb"/><circle cx="794.69" cy="447.99" r="3" fill="#2563eb"/><circle cx="809.63" cy="446.75" r="3" fill="#2563eb"/><circle cx="809.63" cy="446.46" r="3" fill="#2563eb"/><circle cx="809.65" cy="446.54" r="3" fill="#2563eb"/><circle cx="809.65" cy="446.64" r="3" fill="#2563eb"/><circle cx="824.75" cy="444.71" r="3" fill="#2563eb"/><circle cx="824.76" cy="444.36" r="3" fill="#2563eb"/><circle cx="824.77" cy="444.94" r="3" fill="#2563eb"/><circle cx="824.78" cy="444.06" r="3" fill="#2563eb"/><circle cx="839.62" cy="448.98" r="3" fill="#2563eb"/><circle cx="854.94" cy="441.02" r="3" fill="#2563eb"/><circle cx="870.00" cy="445.28" r="3" fill="#2563eb"/>
  <text x="70" y="480" font-family="Menlo, monospace" font-size="12" fill="#374151">0 ms</text>
  <text x="870" y="480" text-anchor="end" font-family="Menlo, monospace" font-size="12" fill="#374151">1180.7 ms</text>
  <text x="36" y="460" font-family="Menlo, monospace" font-size="12" fill="#374151">0 ms</text>
  <text x="22" y="44" font-family="Menlo, monospace" font-size="12" fill="#374151">32.3 ms</text>
  <text x="450" y="502" font-family="Menlo, monospace" font-size="12" fill="#374151">Time Since Start (ms)</text>
  <text x="20" y="260" transform="rotate(-90 20 260)" font-family="Menlo, monospace" font-size="12" fill="#374151">Latency (ms)</text>
</svg>