<?xml version="1.0" encoding="UTF-8"?>
<svg xmlns="http://www.w3.org/2000/svg" width="900" height="520" viewBox="0 0 900 520">
  <rect width="100%" height="100%" fill="#fffdf7"/>
  <text x="70" y="24" font-family="Menlo, monospace" font-size="18" fill="#1f2937">Latency CDF</text>
  <line x1="70" y1="460" x2="870" y2="460" stroke="#111827" stroke-width="1.5"/>
  <line x1="70" y1="460" x2="70" y2="40" stroke="#111827" stroke-width="1.5"/>
  <polyline fill="none" stroke="#0f766e" stroke-width="2" points="70.25,457.90 70.26,455.80 70.48,453.70 70.48,451.60 70.51,449.50 70.51,447.40 70.51,445.30 70.54,443.20 70.56,441.10 70.58,439.00 70.59,436.90 70.60,434.80 70.60,432.70 70.61,430.60 70.61,428.50 70.63,426.40 70.63,424.30 70.64,422.20 70.64,420.10 70.64,418.00 70.64,415.90 70.64,413.80 70.65,411.70 70.65,409.60 70.66,407.50 70.66,405.40 70.66,403.30 70.66,401.20 70.67,399.10 70.67,397.00 70.68,394.90 70.68,392.80 70.68,390.70 70.68,388.60 70.68,386.50 70.69,384.40 70.69,382.30 70.69,380.20 70.70,378.10 70.70,376.00 70.70,373.90 70.70,371.80 70.70,369.70 70.70,367.60 70.70,365.50 70.70,363.40 70.71,361.30 70.71,359.20 70.72,357.10 70.72,355.00 70.74,352.90 70.74,350.80 70.74,348.70 70.74,346.60 70.75,344.50 70.75,342.40 70.76,340.30 70.76,338.20 70.76,336.10 70.76,334.00 70.77,331.90 70.78,329.80 70.79,327.70 70.79,325.60 70.79,323.50 70.79,321.40 70.79,319.30 70.79,317.20 70.79,315.10 70.81,313.00 70.81,310.90 70.81,308.80 70.81,306.70 70.82,304.60 70.82,302.50 70.83,300.40 70.83,298.30 70.83,296.20 70.83,294.10 70.84,292.00 70.84,289.90 70.84,287.80 70.85,285.70 70.85,283.60 70.85,281.50 70.86,279.40 70.87,277.30 70.87,275.20 70.87,273.10 70.88,271.00 70.88,268.90 70.88,266.80 70.89,264.70 70.91,262.60 70.91,260.50 70.91,258.40 70.92,256.30 70.93,254.20 70.94,252.10 70.95,250.00 70.95,247.90 70.95,245.80 70.96,243.70 70.97,241.60 70.97,239.50 70.99,237.40 70.99,235.30 71.01,233.20 71.01,231.10 71.01,229.00 71.01,226.90 71.02,224.80 71.02,222.70 71.02,220.60 71.03,218.50 71.03,216.40 71.04,214.30 71.04,212.20 71.04,210.10 71.05,208.00 71.05,205.90 71.05,203.80 71.06,201.70 71.06,199.60 71.07,197.50 71.07,195.40 71.08,193.30 71.08,191.20 71.08,189.10 71.08,187.00 71.09,184.90 71.10,182.80 71.10,180.70 71.10,178.60 71.10,176.50 71.10,174.40 71.11,172.30 71.11,170.20 71.11,168.10 71.11,166.00 71.11,163.90 71.11,161.80 71.12,159.70 71.12,157.60 71.12,155.50 71.13,153.40 71.14,151.30 71.16,149.20 71.16,147.10 71.17,145.00 71.18,142.90 71.19,140.80 71.19,138.70 71.22,136.60 71.22,134.50 71.23,132.40 71.23,130.30 71.24,128.20 71.25,126.10 71.27,124.00 71.31,121.90 71.38,119.80 71.40,117.70 71.40,115.60 71.41,113.50 71.47,111.40 71.49,109.30 71.52,107.20 71.54,105.10 71.54,103.00 71.64,100.90 71.66,98.80 71.92,96.70 71.95,94.60 71.95,92.50 72.01,90.40 72.07,88.30 72.10,86.20 72.11,84.10 72.38,82.00 72.39,79.90 72.45,77.80 72.45,75.70 72.56,73.60 72.67,71.50 72.74,69.40 72.97,67.30 72.99,65.20 73.01,63.10 73.05,61.00 73.48,58.90 73.77,56.80 211.86,54.70 211.88,52.60 211.91,50.50 211.92,48.40 694.59,46.30 779.51,44.20 784.61,42.10 831.90,40.00 "/>
  <text x="70" y="480" font-family="Menlo, monospace" font-size="12" fill="#374151">0 ms</text>
  <text x="870" y="480" text-anchor="end" font-family="Menlo, monospace" font-size="12" fill="#374151">921.8 ms</text>
  <text x="42" y="460" font-family="Menlo, monospace" font-size="12" fill="#374151">0%</text>
  <text x="32" y="44" font-family="Menlo, monospace" font-size="12" fill="#374151">100%</text>
  <text x="450" y="502" font-family="Menlo, monospace" font-size="12" fill="#374151">Latency (ms)</text>
  <text x="20" y="260" transform="rotate(-90 20 260)" font-family="Menlo, monospace" font-size="12" fill="#374151">CDF</text>
  <line x1="89.34" y1="40" x2="89.34" y2="460" stroke="#dc2626" stroke-width="1.5" stroke-dasharray="6 4"/>
  <text x="97.34" y="54" font-family="Menlo, monospace" font-size="12" fill="#b91c1c">failover 22.3 ms</text>
</svg>