<?xml version="1.0" encoding="UTF-8"?>
<svg xmlns="http://www.w3.org/2000/svg" width="900" height="520" viewBox="0 0 900 520">
  <rect width="100%" height="100%" fill="#fffdf7"/>
  <text x="70" y="24" font-family="Menlo, monospace" font-size="18" fill="#1f2937">Latency Timeline</text>
  <rect x="296.11" y="40" width="8.39" height="420" fill="#fca5a5" fill-opacity="0.25"/>
  <text x="302.11" y="54" font-family="Menlo, monospace" font-size="12" fill="#991b1b">failover window</text>
  <line x1="70" y1="460" x2="870" y2="460" stroke="#111827" stroke-width="1.5"/>
  <line x1="70" y1="460" x2="70" y2="40" stroke="#111827" stroke-width="1.5"/>
  <circle cx="131.66" cy="388.91" r="3" fill="#2563eb"/><circle cx="131.66" cy="388.88" r="3" fill="#2563eb"/><circle cx="131.67" cy="388.88" r="3" fill="#2563eb"/><circle cx="131.68" cy="388.90" r="3" fill="#2563eb"/><circle cx="140.16" cy="459.39" r="3" fill="#2563eb"/><circle cx="140.16" cy="459.37" r="3" fill="#2563eb"/><circle cx="140.16" cy="459.38" r="3" fill="#2563eb"/><circle cx="140.19" cy="459.31" r="3" fill="#2563eb"/><circle cx="149.38" cy="458.99" r="3" fill="#2563eb"/><circle cx="149.39" cy="458.77" r="3" fill="#2563eb"/><circle cx="149.40" cy="458.71" r="3" fill="#2563eb"/><circle cx="149.40" cy="458.95" r="3" fill="#2563eb"/><circle cx="157.80" cy="459.46" r="3" fill="#2563eb"/><circle cx="157.80" cy="459.44" r="3" fill="#2563eb"/><circle cx="157.80" cy="459.47" r="3" fill="#2563eb"/><circle cx="157.81" cy="459.46" r="3" fill="#2563eb"/><circle cx="166.23" cy="459.46" r="3" fill="#2563eb"/><circle cx="166.23" cy="459.45" r="3" fill="#2563eb"/><circle cx="166.24" cy="459.45" r="3" fill="#2563eb"/><circle cx="166.24" cy="459.41" r="3" fill="#2563eb"/><circle cx="174.64" cy="459.49" r="3" fill="#2563eb"/><circle cx="174.65" cy="459.45" r="3" fill="#2563eb"/><circle cx="174.65" cy="459.45" r="3" fill="#2563eb"/><circle cx="174.66" cy="459.44" r="3" fill="#2563eb"/><circle cx="182.84" cy="459.52" r="3" fill="#2563eb"/><circle cx="182.85" cy="459.49" r="3" fill="#2563eb"/><circle cx="182.86" cy="459.50" r="3" fill="#2563eb"/><circle cx="182.86" cy="459.43" r="3" fill="#2563eb"/><circle cx="191.25" cy="459.49" r="3" fill="#2563eb"/><circle cx="191.26" cy="459.48" r="3" fill="#2563eb"/><circle cx="191.26" cy="459.45" r="3" fill="#2563eb"/><circle cx="191.27" cy="459.45" r="3" fill="#2563eb"/><circle cx="200.59" cy="459.48" r="3" fill="#2563eb"/><circle cx="200.60" cy="459.48" r="3" fill="#2563eb"/><circle cx="200.60" cy="459.50" r="3" fill="#2563eb"/><circle cx="200.61" cy="459.48" r="3" fill="#2563eb"/><circle cx="209.39" cy="459.04" r="3" fill="#2563eb"/><circle cx="209.58" cy="458.80" r="3" fill="#2563eb"/><circle cx="209.59" cy="458.81" r="3" fill="#2563eb"/><circle cx="209.59" cy="458.77" r="3" fill="#2563eb"/><circle cx="218.48" cy="458.63" r="3" fill="#2563eb"/><circle cx="218.49" cy="458.66" r="3" fill="#2563eb"/><circle cx="218.92" cy="458.11" r="3" fill="#2563eb"/><circle cx="218.92" cy="458.26" r="3" fill="#2563eb"/><circle cx="226.78" cy="459.56" r="3" fill="#2563eb"/><circle cx="226.79" cy="459.62" r="3" fill="#2563eb"/><circle cx="226.80" cy="459.62" r="3" fill="#2563eb"/><circle cx="226.80" cy="459.56" r="3" fill="#2563eb"/><circle cx="235.61" cy="459.02" r="3" fill="#2563eb"/><circle cx="235.63" cy="459.02" r="3" fill="#2563eb"/><circle cx="235.64" cy="458.96" r="3" fill="#2563eb"/><circle cx="235.65" cy="458.94" r="3" fill="#2563eb"/><circle cx="244.58" cy="459.26" r="3" fill="#2563eb"/><circle cx="244.58" cy="459.17" r="3" fill="#2563eb"/><circle cx="244.58" cy="459.25" r="3" fill="#2563eb"/><circle cx="244.59" cy="459.43" r="3" fill="#2563eb"/><circle cx="252.68" cy="459.44" r="3" fill="#2563eb"/><circle cx="252.69" cy="459.44" r="3" fill="#2563eb"/><circle cx="252.70" cy="459.40" r="3" fill="#2563eb"/><circle cx="252.71" cy="459.39" r="3" fill="#2563eb"/><circle cx="261.92" cy="458.50" r="3" fill="#2563eb"/><circle cx="261.93" cy="458.49" r="3" fill="#2563eb"/><circle cx="261.94" cy="458.51" r="3" fill="#2563eb"/><circle cx="261.96" cy="458.47" r="3" fill="#2563eb"/><circle cx="270.30" cy="459.51" r="3" fill="#2563eb"/><circle cx="270.30" cy="459.53" r="3" fill="#2563eb"/><circle cx="270.31" cy="459.50" r="3" fill="#2563eb"/><circle cx="270.31" cy="459.50" r="3" fill="#2563eb"/><circle cx="278.78" cy="459.40" r="3" fill="#2563eb"/><circle cx="278.79" cy="459.38" r="3" fill="#2563eb"/><circle cx="278.79" cy="459.39" r="3" fill="#2563eb"/><circle cx="278.80" cy="459.36" r="3" fill="#2563eb"/><circle cx="287.65" cy="459.30" r="3" fill="#2563eb"/><circle cx="287.65" cy="459.29" r="3" fill="#2563eb"/><circle cx="287.66" cy="459.23" r="3" fill="#2563eb"/><circle cx="287.66" cy="459.30" r="3" fill="#2563eb"/><circle cx="296.07" cy="459.49" r="3" fill="#2563eb"/><circle cx="296.08" cy="459.47" r="3" fill="#2563eb"/><circle cx="296.09" cy="459.44" r="3" fill="#2563eb"/><circle cx="296.11" cy="459.42" r="3" fill="#2563eb"/><circle cx="304.50" cy="459.49" r="3" fill="#2563eb"/><circle cx="304.51" cy="459.48" r="3" fill="#2563eb"/><circle cx="304.52" cy="459.44" r="3" fill="#2563eb"/><circle cx="312.78" cy="459.60" r="3" fill="#2563eb"/><circle cx="312.78" cy="459.60" r="3" fill="#2563eb"/><circle cx="312.78" cy="459.59" r="3" fill="#2563eb"/><circle cx="321.00" cy="459.66" r="3" fill="#2563eb"/><circle cx="321.00" cy="459.67" r="3" fill="#2563eb"/><circle cx="321.01" cy="459.66" r="3" fill="#2563eb"/><circle cx="599.94" cy="147.00" r="3" fill="#2563eb"/><circle cx="608.29" cy="459.52" r="3" fill="#2563eb"/><circle cx="616.69" cy="459.47" r="3" fill="#2563eb"/><circle cx="624.98" cy="459.58" r="3" fill="#2563eb"/><circle cx="633.30" cy="459.57" r="3" fill="#2563eb"/><circle cx="636.79" cy="104.44" r="3" fill="#2563eb"/><circle cx="638.99" cy="101.88" r="3" fill="#2563eb"/><circle cx="641.35" cy="459.68" r="3" fill="#2563eb"/><circle cx="645.21" cy="459.44" r="3" fill="#2563eb"/><circle cx="647.05" cy="459.61" r="3" fill="#2563eb"/><circle cx="649.43" cy="459.52" r="3" fill="#2563eb"/><circle cx="653.43" cy="459.68" r="3" fill="#2563eb"/><circle cx="655.08" cy="459.62" r="3" fill="#2563eb"/><circle cx="657.62" cy="459.54" r="3" fill="#2563eb"/><circle cx="659.51" cy="78.18" r="3" fill="#2563eb"/><circle cx="661.45" cy="459.65" r="3" fill="#2563eb"/><circle cx="663.27" cy="459.45" r="3" fill="#2563eb"/><circle cx="665.72" cy="459.62" r="3" fill="#2563eb"/><circle cx="667.51" cy="459.67" r="3" fill="#2563eb"/><circle cx="669.53" cy="459.61" r="3" fill="#2563eb"/><circle cx="671.23" cy="459.71" r="3" fill="#2563eb"/><circle cx="673.83" cy="459.65" r="3" fill="#2563eb"/><circle cx="675.88" cy="459.23" r="3" fill="#2563eb"/><circle cx="677.44" cy="459.76" r="3" fill="#2563eb"/><circle cx="679.24" cy="459.66" r="3" fill="#2563eb"/><circle cx="682.00" cy="459.60" r="3" fill="#2563eb"/><circle cx="683.93" cy="459.63" r="3" fill="#2563eb"/><circle cx="685.40" cy="459.67" r="3" fill="#2563eb"/><circle cx="687.23" cy="459.69" r="3" fill="#2563eb"/><circle cx="690.09" cy="459.65" r="3" fill="#2563eb"/><circle cx="691.95" cy="459.65" r="3" fill="#2563eb"/><circle cx="693.32" cy="459.70" r="3" fill="#2563eb"/><circle cx="695.63" cy="459.24" r="3" fill="#2563eb"/><circle cx="698.21" cy="459.63" r="3" fill="#2563eb"/><circle cx="699.88" cy="459.75" r="3" fill="#2563eb"/><circle cx="701.32" cy="459.63" r="3" fill="#2563eb"/><circle cx="703.71" cy="459.67" r="3" fill="#2563eb"/><circle cx="706.14" cy="459.67" r="3" fill="#2563eb"/><circle cx="707.95" cy="459.59" r="3" fill="#2563eb"/><circle cx="709.26" cy="459.67" r="3" fill="#2563eb"/><circle cx="711.80" cy="459.66" r="3" fill="#2563eb"/><circle cx="714.18" cy="459.70" r="3" fill="#2563eb"/><circle cx="715.89" cy="459.73" r="3" fill="#2563eb"/><circle cx="717.23" cy="459.65" r="3" fill="#2563eb"/><circle cx="719.91" cy="459.68" r="3" fill="#2563eb"/><circle cx="722.26" cy="459.66" r="3" fill="#2563eb"/><circle cx="723.86" cy="459.61" r="3" fill="#2563eb"/><circle cx="725.23" cy="459.63" r="3" fill="#2563eb"/><circle cx="728.06" cy="459.64" r="3" fill="#2563eb"/><circle cx="730.31" cy="459.66" r="3" fill="#2563eb"/><circle cx="731.77" cy="459.74" r="3" fill="#2563eb"/><circle cx="733.17" cy="459.70" r="3" fill="#2563eb"/><circle cx="736.21" cy="459.66" r="3" fill="#2563eb"/><circle cx="738.42" cy="459.59" r="3" fill="#2563eb"/><circle cx="739.75" cy="459.64" r="3" fill="#2563eb"/><circle cx="741.14" cy="459.65" r="3" fill="#2563eb"/><circle cx="744.47" cy="459.58" r="3" fill="#2563eb"/><circle cx="746.48" cy="459.64" r="3" fill="#2563eb"/><circle cx="747.67" cy="459.68" r="3" fill="#2563eb"/><circle cx="749.20" cy="459.55" r="3" fill="#2563eb"/><circle cx="752.58" cy="459.65" r="3" fill="#2563eb"/><circle cx="754.56" cy="459.60" r="3" fill="#2563eb"/><circle cx="755.58" cy="459.68" r="3" fill="#2563eb"/><circle cx="757.31" cy="459.53" r="3" fill="#2563eb"/><circle cx="760.89" cy="459.54" r="3" fill="#2563eb"/><circle cx="762.54" cy="459.68" r="3" fill="#2563eb"/><circle cx="763.77" cy="459.34" r="3" fill="#2563eb"/><circle cx="765.40" cy="459.54" r="3" fill="#2563eb"/><circle cx="769.35" cy="459.41" r="3" fill="#2563eb"/><circle cx="770.57" cy="459.56" r="3" fill="#2563eb"/><circle cx="771.67" cy="459.70" r="3" fill="#2563eb"/><circle cx="773.38" cy="459.68" r="3" fill="#2563eb"/><circle cx="777.67" cy="459.57" r="3" fill="#2563eb"/><circle cx="778.29" cy="459.87" r="3" fill="#2563eb"/><circle cx="779.43" cy="459.87" r="3" fill="#2563eb"/><circle cx="781.46" cy="459.62" r="3" fill="#2563eb"/><circle cx="786.03" cy="459.51" r="3" fill="#2563eb"/><circle cx="786.20" cy="459.60" r="3" fill="#2563eb"/><circle cx="787.48" cy="459.54" r="3" fill="#2563eb"/><circle cx="789.51" cy="459.62" r="3" fill="#2563eb"/><circle cx="794.32" cy="459.59" r="3" fill="#2563eb"/><circle cx="794.33" cy="459.59" r="3" fill="#2563eb"/><circle cx="795.51" cy="459.56" r="3" fill="#2563eb"/><circle cx="797.53" cy="459.67" r="3" fill="#2563eb"/><circle cx="802.61" cy="459.59" r="3" fill="#2563eb"/><circle cx="802.61" cy="459.57" r="3" fill="#2563eb"/><circle cx="803.33" cy="459.74" r="3" fill="#2563eb"/><circle cx="805.54" cy="459.72" r="3" fill="#2563eb"/><circle cx="810.70" cy="459.58" r="3" fill="#2563eb"/><circle cx="810.70" cy="459.57" r="3" fill="#2563eb"/><circle cx="811.12" cy="459.76" r="3" fill="#2563eb"/><circle cx="813.64" cy="459.65" r="3" fill="#2563eb"/><circle cx="819.10" cy="459.49" r="3" fill="#2563eb"/><circle cx="819.11" cy="459.47" r="3" fill="#2563eb"/><circle cx="821.81" cy="459.58" r="3" fill="#2563eb"/><circle cx="827.59" cy="459.42" r="3" fill="#2563eb"/><circle cx="827.59" cy="459.44" r="3" fill="#2563eb"/><circle cx="829.90" cy="459.65" r="3" fill="#2563eb"/><circle cx="835.99" cy="459.48" r="3" fill="#2563eb"/><circle cx="835.99" cy="459.46" r="3" fill="#2563eb"/><circle cx="838.00" cy="459.60" r="3" fill="#2563eb"/><circle cx="844.27" cy="459.63" r="3" fill="#2563eb"/><circle cx="844.27" cy="459.60" r="3" fill="#2563eb"/><circle cx="846.13" cy="459.52" r="3" fill="#2563eb"/><circle cx="852.58" cy="459.57" r="3" fill="#2563eb"/><circle cx="852.58" cy="459.56" r="3" fill="#2563eb"/><circle cx="854.11" cy="459.65" r="3" fill="#2563eb"/><circle cx="861.23" cy="459.18" r="3" fill="#2563eb"/><circle cx="862.02" cy="459.65" r="3" fill="#2563eb"/><circle cx="869.64" cy="459.46" r="3" fill="#2563eb"/><circle cx="870.00" cy="459.58" r="3" fill="#2563eb"/>
  <text x="70" y="480" font-family="Menlo, monospace" font-size="12" fill="#374151">0 ms</text>
  <text x="870" y="480" text-anchor="end" font-family="Menlo, monospace" font-size="12" fill="#374151">2124.5 ms</text>
  <text x="36" y="460" font-family="Menlo, monospace" font-size="12" fill="#374151">0 ms</text>
  <text x="22" y="44" font-family="Menlo, monospace" font-size="12" fill="#374151">965.7 ms</text>
  <text x="450" y="502" font-family="Menlo, monospace" font-size="12" fill="#374151">Time Since Start (ms)</text>
  <text x="20" y="260" transform="rotate(-90 20 260)" font-family="Menlo, monospace" font-size="12" fill="#374151">Latency (ms)</text>
</svg>