<?xml version="1.0" encoding="UTF-8"?>
<svg xmlns="http://www.w3.org/2000/svg" width="900" height="520" viewBox="0 0 900 520">
  <rect width="100%" height="100%" fill="#fffdf7"/>
  <text x="70" y="24" font-family="Menlo, monospace" font-size="18" fill="#1f2937">Latency CDF</text>
  <line x1="70" y1="460" x2="870" y2="460" stroke="#111827" stroke-width="1.5"/>
  <line x1="70" y1="460" x2="70" y2="40" stroke="#111827" stroke-width="1.5"/>
  <polyline fill="none" stroke="#0f766e" stroke-width="2" points="70.56,457.90 70.64,455.80 70.66,453.70 70.67,451.60 70.67,449.50 70.67,447.40 70.67,445.30 70.68,443.20 70.69,441.10 70.69,439.00 70.69,436.90 70.70,434.80 70.70,432.70 70.71,430.60 70.72,428.50 70.72,426.40 70.73,424.30 70.73,422.20 70.75,420.10 70.75,418.00 70.76,415.90 70.76,413.80 70.77,411.70 70.77,409.60 70.79,407.50 70.81,405.40 70.81,403.30 70.83,401.20 70.84,399.10 70.84,397.00 70.85,394.90 70.85,392.80 70.85,390.70 70.86,388.60 70.86,386.50 70.86,384.40 70.87,382.30 70.87,380.20 70.89,378.10 70.89,376.00 70.89,373.90 70.89,371.80 70.89,369.70 70.90,367.60 70.90,365.50 70.91,363.40 70.91,361.30 70.91,359.20 70.92,357.10 70.93,355.00 70.93,352.90 70.94,350.80 70.94,348.70 70.94,346.60 70.95,344.50 70.95,342.40 70.95,340.30 70.95,338.20 70.95,336.10 70.96,334.00 70.96,331.90 70.96,329.80 70.97,327.70 70.97,325.60 70.98,323.50 70.99,321.40 70.99,319.30 71.00,317.20 71.00,315.10 71.00,313.00 71.00,310.90 71.00,308.80 71.00,306.70 71.00,304.60 71.02,302.50 71.02,300.40 71.02,298.30 71.02,296.20 71.03,294.10 71.03,292.00 71.05,289.90 71.05,287.80 71.06,285.70 71.06,283.60 71.06,281.50 71.06,279.40 71.06,277.30 71.06,275.20 71.07,273.10 71.07,271.00 71.07,268.90 71.08,266.80 71.09,264.70 71.09,262.60 71.10,260.50 71.10,258.40 71.10,256.30 71.11,254.20 71.11,252.10 71.11,250.00 71.11,247.90 71.12,245.80 71.13,243.70 71.13,241.60 71.14,239.50 71.16,237.40 71.16,235.30 71.16,233.20 71.16,231.10 71.17,229.00 71.17,226.90 71.17,224.80 71.17,222.70 71.18,220.60 71.18,218.50 71.19,216.40 71.19,214.30 71.22,212.20 71.22,210.10 71.22,208.00 71.23,205.90 71.24,203.80 71.24,201.70 71.25,199.60 71.26,197.50 71.27,195.40 71.27,193.30 71.27,191.20 71.28,189.10 71.29,187.00 71.29,184.90 71.29,182.80 71.30,180.70 71.32,178.60 71.32,176.50 71.33,174.40 71.34,172.30 71.34,170.20 71.35,168.10 71.36,166.00 71.37,163.90 71.38,161.80 71.39,159.70 71.39,157.60 71.42,155.50 71.43,153.40 71.46,151.30 71.48,149.20 71.48,147.10 71.49,145.00 71.50,142.90 71.52,140.80 71.52,138.70 71.52,136.60 71.53,134.50 71.53,132.40 71.54,130.30 71.54,128.20 71.54,126.10 71.57,124.00 71.58,121.90 71.59,119.80 71.59,117.70 71.60,115.60 71.61,113.50 71.61,111.40 72.03,109.30 72.25,107.20 72.28,105.10 72.33,103.00 72.33,100.90 72.38,98.80 72.41,96.70 72.42,94.60 72.43,92.50 72.43,90.40 72.45,88.30 72.46,86.20 72.55,84.10 72.68,82.00 73.23,79.90 73.25,77.80 73.38,75.70 73.42,73.60 73.66,71.50 73.69,69.40 73.70,67.30 73.78,65.20 78.10,63.10 78.11,61.00 78.12,58.90 78.13,56.80 93.67,54.70 93.70,52.60 93.72,50.50 93.73,48.40 722.31,46.30 807.94,44.20 808.92,42.10 831.90,40.00 "/>
  <text x="70" y="480" font-family="Menlo, monospace" font-size="12" fill="#374151">0 ms</text>
  <text x="870" y="480" text-anchor="end" font-family="Menlo, monospace" font-size="12" fill="#374151">910.8 ms</text>
  <text x="42" y="460" font-family="Menlo, monospace" font-size="12" fill="#374151">0%</text>
  <text x="32" y="44" font-family="Menlo, monospace" font-size="12" fill="#374151">100%</text>
  <text x="450" y="502" font-family="Menlo, monospace" font-size="12" fill="#374151">Latency (ms)</text>
  <text x="20" y="260" transform="rotate(-90 20 260)" font-family="Menlo, monospace" font-size="12" fill="#374151">CDF</text>
  
</svg>