<?xml version="1.0" encoding="UTF-8"?>
<svg xmlns="http://www.w3.org/2000/svg" width="900" height="520" viewBox="0 0 900 520">
  <rect width="100%" height="100%" fill="#fffdf7"/>
  <text x="70" y="24" font-family="Menlo, monospace" font-size="18" fill="#1f2937">Latency Timeline</text>
  
  <line x1="70" y1="460" x2="870" y2="460" stroke="#111827" stroke-width="1.5"/>
  <line x1="70" y1="460" x2="70" y2="40" stroke="#111827" stroke-width="1.5"/>
  <circle cx="80.89" cy="448.12" r="3" fill="#2563eb"/><circle cx="80.90" cy="448.14" r="3" fill="#2563eb"/><circle cx="80.91" cy="448.11" r="3" fill="#2563eb"/><circle cx="80.91" cy="448.11" r="3" fill="#2563eb"/><circle cx="89.92" cy="459.39" r="3" fill="#2563eb"/><circle cx="89.92" cy="459.33" r="3" fill="#2563eb"/><circle cx="89.93" cy="459.34" r="3" fill="#2563eb"/><circle cx="89.93" cy="459.36" r="3" fill="#2563eb"/><circle cx="98.80" cy="459.51" r="3" fill="#2563eb"/><circle cx="98.80" cy="459.50" r="3" fill="#2563eb"/><circle cx="98.82" cy="459.52" r="3" fill="#2563eb"/><circle cx="98.82" cy="459.48" r="3" fill="#2563eb"/><circle cx="107.70" cy="459.50" r="3" fill="#2563eb"/><circle cx="107.70" cy="459.49" r="3" fill="#2563eb"/><circle cx="107.71" cy="459.50" r="3" fill="#2563eb"/><circle cx="107.71" cy="459.47" r="3" fill="#2563eb"/><circle cx="116.57" cy="459.53" r="3" fill="#2563eb"/><circle cx="116.58" cy="459.52" r="3" fill="#2563eb"/><circle cx="116.58" cy="459.50" r="3" fill="#2563eb"/><circle cx="116.59" cy="459.52" r="3" fill="#2563eb"/><circle cx="125.92" cy="458.77" r="3" fill="#2563eb"/><circle cx="125.92" cy="458.79" r="3" fill="#2563eb"/><circle cx="125.92" cy="458.78" r="3" fill="#2563eb"/><circle cx="125.92" cy="458.66" r="3" fill="#2563eb"/><circle cx="135.40" cy="458.87" r="3" fill="#2563eb"/><circle cx="135.41" cy="458.86" r="3" fill="#2563eb"/><circle cx="135.43" cy="458.83" r="3" fill="#2563eb"/><circle cx="135.43" cy="458.81" r="3" fill="#2563eb"/><circle cx="144.22" cy="459.58" r="3" fill="#2563eb"/><circle cx="144.23" cy="459.58" r="3" fill="#2563eb"/><circle cx="144.23" cy="459.56" r="3" fill="#2563eb"/><circle cx="144.24" cy="459.55" r="3" fill="#2563eb"/><circle cx="153.79" cy="459.24" r="3" fill="#2563eb"/><circle cx="153.80" cy="459.25" r="3" fill="#2563eb"/><circle cx="153.80" cy="459.21" r="3" fill="#2563eb"/><circle cx="153.81" cy="459.23" r="3" fill="#2563eb"/><circle cx="163.50" cy="459.28" r="3" fill="#2563eb"/><circle cx="163.50" cy="459.30" r="3" fill="#2563eb"/><circle cx="163.51" cy="459.26" r="3" fill="#2563eb"/><circle cx="163.52" cy="459.24" r="3" fill="#2563eb"/><circle cx="172.19" cy="459.43" r="3" fill="#2563eb"/><circle cx="172.24" cy="459.39" r="3" fill="#2563eb"/><circle cx="172.25" cy="459.36" r="3" fill="#2563eb"/><circle cx="172.25" cy="459.38" r="3" fill="#2563eb"/><circle cx="181.84" cy="458.72" r="3" fill="#2563eb"/><circle cx="181.84" cy="458.78" r="3" fill="#2563eb"/><circle cx="181.84" cy="458.79" r="3" fill="#2563eb"/><circle cx="181.86" cy="458.77" r="3" fill="#2563eb"/><circle cx="190.76" cy="459.54" r="3" fill="#2563eb"/><circle cx="190.76" cy="459.51" r="3" fill="#2563eb"/><circle cx="190.77" cy="459.46" r="3" fill="#2563eb"/><circle cx="190.78" cy="459.46" r="3" fill="#2563eb"/><circle cx="199.70" cy="459.45" r="3" fill="#2563eb"/><circle cx="199.70" cy="459.47" r="3" fill="#2563eb"/><circle cx="199.71" cy="459.47" r="3" fill="#2563eb"/><circle cx="199.71" cy="459.44" r="3" fill="#2563eb"/><circle cx="209.82" cy="458.17" r="3" fill="#2563eb"/><circle cx="209.86" cy="458.10" r="3" fill="#2563eb"/><circle cx="209.86" cy="458.15" r="3" fill="#2563eb"/><circle cx="209.87" cy="458.15" r="3" fill="#2563eb"/><circle cx="218.59" cy="459.48" r="3" fill="#2563eb"/><circle cx="218.59" cy="459.35" r="3" fill="#2563eb"/><circle cx="218.60" cy="459.36" r="3" fill="#2563eb"/><circle cx="218.60" cy="459.40" r="3" fill="#2563eb"/><circle cx="227.45" cy="459.47" r="3" fill="#2563eb"/><circle cx="227.45" cy="459.50" r="3" fill="#2563eb"/><circle cx="227.45" cy="459.49" r="3" fill="#2563eb"/><circle cx="227.46" cy="459.47" r="3" fill="#2563eb"/><circle cx="236.45" cy="459.39" r="3" fill="#2563eb"/><circle cx="236.52" cy="459.31" r="3" fill="#2563eb"/><circle cx="236.53" cy="459.32" r="3" fill="#2563eb"/><circle cx="236.53" cy="459.29" r="3" fill="#2563eb"/><circle cx="245.30" cy="459.53" r="3" fill="#2563eb"/><circle cx="245.31" cy="459.54" r="3" fill="#2563eb"/><circle cx="245.31" cy="459.53" r="3" fill="#2563eb"/><circle cx="245.31" cy="459.53" r="3" fill="#2563eb"/><circle cx="254.07" cy="459.62" r="3" fill="#2563eb"/><circle cx="254.07" cy="459.64" r="3" fill="#2563eb"/><circle cx="254.08" cy="459.62" r="3" fill="#2563eb"/><circle cx="254.08" cy="459.63" r="3" fill="#2563eb"/><circle cx="262.91" cy="459.59" r="3" fill="#2563eb"/><circle cx="262.91" cy="459.57" r="3" fill="#2563eb"/><circle cx="262.92" cy="459.55" r="3" fill="#2563eb"/><circle cx="271.65" cy="459.66" r="3" fill="#2563eb"/><circle cx="271.65" cy="459.64" r="3" fill="#2563eb"/><circle cx="271.65" cy="459.65" r="3" fill="#2563eb"/><circle cx="577.74" cy="133.11" r="3" fill="#2563eb"/><circle cx="586.65" cy="459.49" r="3" fill="#2563eb"/><circle cx="596.03" cy="458.98" r="3" fill="#2563eb"/><circle cx="605.01" cy="459.41" r="3" fill="#2563eb"/><circle cx="613.92" cy="459.49" r="3" fill="#2563eb"/><circle cx="616.25" cy="90.19" r="3" fill="#2563eb"/><circle cx="616.68" cy="89.70" r="3" fill="#2563eb"/><circle cx="623.60" cy="458.83" r="3" fill="#2563eb"/><circle cx="624.65" cy="459.68" r="3" fill="#2563eb"/><circle cx="625.10" cy="459.57" r="3" fill="#2563eb"/><circle cx="627.16" cy="78.18" r="3" fill="#2563eb"/><circle cx="633.05" cy="459.40" r="3" fill="#2563eb"/><circle cx="633.19" cy="459.45" r="3" fill="#2563eb"/><circle cx="633.47" cy="459.64" r="3" fill="#2563eb"/><circle cx="635.88" cy="459.47" r="3" fill="#2563eb"/><circle cx="642.23" cy="459.23" r="3" fill="#2563eb"/><circle cx="642.24" cy="459.21" r="3" fill="#2563eb"/><circle cx="642.25" cy="459.19" r="3" fill="#2563eb"/><circle cx="644.41" cy="459.66" r="3" fill="#2563eb"/><circle cx="651.07" cy="459.61" r="3" fill="#2563eb"/><circle cx="651.07" cy="459.58" r="3" fill="#2563eb"/><circle cx="651.07" cy="459.55" r="3" fill="#2563eb"/><circle cx="652.95" cy="459.63" r="3" fill="#2563eb"/><circle cx="659.92" cy="459.54" r="3" fill="#2563eb"/><circle cx="659.94" cy="459.51" r="3" fill="#2563eb"/><circle cx="659.94" cy="459.53" r="3" fill="#2563eb"/><circle cx="661.40" cy="459.66" r="3" fill="#2563eb"/><circle cx="668.85" cy="459.50" r="3" fill="#2563eb"/><circle cx="668.85" cy="459.45" r="3" fill="#2563eb"/><circle cx="668.87" cy="459.46" r="3" fill="#2563eb"/><circle cx="669.78" cy="459.67" r="3" fill="#2563eb"/><circle cx="677.69" cy="459.55" r="3" fill="#2563eb"/><circle cx="677.69" cy="459.56" r="3" fill="#2563eb"/><circle cx="677.70" cy="459.54" r="3" fill="#2563eb"/><circle cx="678.07" cy="459.72" r="3" fill="#2563eb"/><circle cx="686.84" cy="459.24" r="3" fill="#2563eb"/><circle cx="686.85" cy="459.23" r="3" fill="#2563eb"/><circle cx="686.86" cy="459.21" r="3" fill="#2563eb"/><circle cx="686.86" cy="459.20" r="3" fill="#2563eb"/><circle cx="695.88" cy="459.38" r="3" fill="#2563eb"/><circle cx="695.89" cy="459.38" r="3" fill="#2563eb"/><circle cx="695.90" cy="459.33" r="3" fill="#2563eb"/><circle cx="695.99" cy="459.24" r="3" fill="#2563eb"/><circle cx="704.75" cy="459.55" r="3" fill="#2563eb"/><circle cx="704.76" cy="459.53" r="3" fill="#2563eb"/><circle cx="704.78" cy="459.50" r="3" fill="#2563eb"/><circle cx="704.78" cy="459.53" r="3" fill="#2563eb"/><circle cx="713.70" cy="459.45" r="3" fill="#2563eb"/><circle cx="713.70" cy="459.47" r="3" fill="#2563eb"/><circle cx="713.71" cy="459.44" r="3" fill="#2563eb"/><circle cx="713.72" cy="459.42" r="3" fill="#2563eb"/><circle cx="722.36" cy="459.34" r="3" fill="#2563eb"/><circle cx="722.37" cy="459.36" r="3" fill="#2563eb"/><circle cx="722.37" cy="459.31" r="3" fill="#2563eb"/><circle cx="722.38" cy="459.35" r="3" fill="#2563eb"/><circle cx="732.23" cy="458.38" r="3" fill="#2563eb"/><circle cx="732.27" cy="458.37" r="3" fill="#2563eb"/><circle cx="732.31" cy="458.31" r="3" fill="#2563eb"/><circle cx="732.32" cy="458.29" r="3" fill="#2563eb"/><circle cx="741.07" cy="459.57" r="3" fill="#2563eb"/><circle cx="741.08" cy="459.55" r="3" fill="#2563eb"/><circle cx="741.09" cy="459.52" r="3" fill="#2563eb"/><circle cx="741.09" cy="459.52" r="3" fill="#2563eb"/><circle cx="750.14" cy="459.33" r="3" fill="#2563eb"/><circle cx="750.15" cy="459.35" r="3" fill="#2563eb"/><circle cx="750.15" cy="459.41" r="3" fill="#2563eb"/><circle cx="750.15" cy="459.31" r="3" fill="#2563eb"/><circle cx="759.09" cy="459.42" r="3" fill="#2563eb"/><circle cx="759.10" cy="459.43" r="3" fill="#2563eb"/><circle cx="759.10" cy="459.41" r="3" fill="#2563eb"/><circle cx="759.10" cy="459.42" r="3" fill="#2563eb"/><circle cx="768.24" cy="459.25" r="3" fill="#2563eb"/><circle cx="768.25" cy="459.20" r="3" fill="#2563eb"/><circle cx="768.26" cy="459.20" r="3" fill="#2563eb"/><circle cx="768.26" cy="459.23" r="3" fill="#2563eb"/><circle cx="777.17" cy="459.47" r="3" fill="#2563eb"/><circle cx="777.18" cy="459.47" r="3" fill="#2563eb"/><circle cx="777.18" cy="459.44" r="3" fill="#2563eb"/><circle cx="777.19" cy="459.44" r="3" fill="#2563eb"/><circle cx="786.08" cy="459.52" r="3" fill="#2563eb"/><circle cx="786.08" cy="459.52" r="3" fill="#2563eb"/><circle cx="786.09" cy="459.50" r="3" fill="#2563eb"/><circle cx="786.09" cy="459.47" r="3" fill="#2563eb"/><circle cx="795.09" cy="459.44" r="3" fill="#2563eb"/><circle cx="795.09" cy="459.37" r="3" fill="#2563eb"/><circle cx="795.10" cy="459.37" r="3" fill="#2563eb"/><circle cx="795.11" cy="459.42" r="3" fill="#2563eb"/><circle cx="808.49" cy="455.93" r="3" fill="#2563eb"/><circle cx="808.50" cy="455.93" r="3" fill="#2563eb"/><circle cx="808.51" cy="455.94" r="3" fill="#2563eb"/><circle cx="808.51" cy="455.94" r="3" fill="#2563eb"/><circle cx="817.57" cy="459.43" r="3" fill="#2563eb"/><circle cx="817.58" cy="459.41" r="3" fill="#2563eb"/><circle cx="817.58" cy="459.37" r="3" fill="#2563eb"/><circle cx="817.59" cy="459.42" r="3" fill="#2563eb"/><circle cx="826.16" cy="459.41" r="3" fill="#2563eb"/><circle cx="826.24" cy="459.32" r="3" fill="#2563eb"/><circle cx="826.28" cy="459.26" r="3" fill="#2563eb"/><circle cx="826.28" cy="459.27" r="3" fill="#2563eb"/><circle cx="835.01" cy="459.60" r="3" fill="#2563eb"/><circle cx="835.02" cy="459.57" r="3" fill="#2563eb"/><circle cx="835.02" cy="459.58" r="3" fill="#2563eb"/><circle cx="835.02" cy="459.57" r="3" fill="#2563eb"/><circle cx="843.77" cy="459.65" r="3" fill="#2563eb"/><circle cx="843.77" cy="459.66" r="3" fill="#2563eb"/><circle cx="843.78" cy="459.66" r="3" fill="#2563eb"/><circle cx="843.78" cy="459.63" r="3" fill="#2563eb"/><circle cx="852.51" cy="459.66" r="3" fill="#2563eb"/><circle cx="852.51" cy="459.65" r="3" fill="#2563eb"/><circle cx="852.52" cy="459.65" r="3" fill="#2563eb"/><circle cx="861.29" cy="459.61" r="3" fill="#2563eb"/><circle cx="861.29" cy="459.62" r="3" fill="#2563eb"/><circle cx="861.29" cy="459.62" r="3" fill="#2563eb"/><circle cx="870.00" cy="459.58" r="3" fill="#2563eb"/>
  <text x="70" y="480" font-family="Menlo, monospace" font-size="12" fill="#374151">0 ms</text>
  <text x="870" y="480" text-anchor="end" font-family="Menlo, monospace" font-size="12" fill="#374151">1999.4 ms</text>
  <text x="36" y="460" font-family="Menlo, monospace" font-size="12" fill="#374151">0 ms</text>
  <text x="22" y="44" font-family="Menlo, monospace" font-size="12" fill="#374151">954.2 ms</text>
  <text x="450" y="502" font-family="Menlo, monospace" font-size="12" fill="#374151">Time Since Start (ms)</text>
  <text x="20" y="260" transform="rotate(-90 20 260)" font-family="Menlo, monospace" font-size="12" fill="#374151">Latency (ms)</text>
</svg>