<?xml version="1.0" encoding="UTF-8"?>
<svg xmlns="http://www.w3.org/2000/svg" width="900" height="520" viewBox="0 0 900 520">
  <rect width="100%" height="100%" fill="#fffdf7"/>
  <text x="70" y="24" font-family="Menlo, monospace" font-size="18" fill="#1f2937">Latency CDF</text>
  <line x1="70" y1="460" x2="870" y2="460" stroke="#111827" stroke-width="1.5"/>
  <line x1="70" y1="460" x2="70" y2="40" stroke="#111827" stroke-width="1.5"/>
  <polyline fill="none" stroke="#0f766e" stroke-width="2" points="70.44,457.90 70.51,455.80 70.59,453.70 70.62,451.60 70.63,449.50 70.67,447.40 70.67,445.30 70.68,443.20 70.69,441.10 70.69,439.00 70.72,436.90 70.72,434.80 70.73,432.70 70.73,430.60 70.75,428.50 70.78,426.40 70.78,424.30 70.79,422.20 70.80,420.10 70.81,418.00 70.81,415.90 70.81,413.80 70.82,411.70 70.83,409.60 70.83,407.50 70.83,405.40 70.84,403.30 70.85,401.20 70.85,399.10 70.86,397.00 70.86,394.90 70.86,392.80 70.87,390.70 70.87,388.60 70.88,386.50 70.89,384.40 70.89,382.30 70.89,380.20 70.89,378.10 70.90,376.00 70.90,373.90 70.90,371.80 70.91,369.70 70.91,367.60 70.91,365.50 70.92,363.40 70.92,361.30 70.92,359.20 70.93,357.10 70.93,355.00 70.93,352.90 70.94,350.80 70.97,348.70 70.97,346.60 70.97,344.50 70.98,342.40 70.99,340.30 70.99,338.20 71.00,336.10 71.01,334.00 71.01,331.90 71.01,329.80 71.01,327.70 71.01,325.60 71.02,323.50 71.03,321.40 71.03,319.30 71.03,317.20 71.04,315.10 71.04,313.00 71.04,310.90 71.04,308.80 71.04,306.70 71.05,304.60 71.05,302.50 71.05,300.40 71.05,298.30 71.06,296.20 71.06,294.10 71.07,292.00 71.07,289.90 71.07,287.80 71.07,285.70 71.07,283.60 71.08,281.50 71.08,279.40 71.08,277.30 71.09,275.20 71.10,273.10 71.10,271.00 71.10,268.90 71.11,266.80 71.12,264.70 71.13,262.60 71.14,260.50 71.14,258.40 71.15,256.30 71.15,254.20 71.16,252.10 71.17,250.00 71.17,247.90 71.17,245.80 71.17,243.70 71.17,241.60 71.17,239.50 71.18,237.40 71.18,235.30 71.19,233.20 71.19,231.10 71.21,229.00 71.22,226.90 71.22,224.80 71.24,222.70 71.25,220.60 71.27,218.50 71.28,216.40 71.29,214.30 71.29,212.20 71.30,210.10 71.31,208.00 71.32,205.90 71.32,203.80 71.33,201.70 71.34,199.60 71.34,197.50 71.35,195.40 71.35,193.30 71.41,191.20 71.42,189.10 71.44,187.00 71.45,184.90 71.49,182.80 71.50,180.70 71.50,178.60 71.51,176.50 71.53,174.40 71.57,172.30 71.57,170.20 71.57,168.10 71.58,166.00 71.58,163.90 71.60,161.80 71.60,159.70 71.61,157.60 71.63,155.50 71.64,153.40 71.64,151.30 71.65,149.20 71.65,147.10 71.73,145.00 71.75,142.90 71.76,140.80 71.83,138.70 72.00,136.60 72.01,134.50 72.02,132.40 72.10,130.30 72.10,128.20 72.10,126.10 72.11,124.00 72.11,121.90 72.11,119.80 72.13,117.70 72.14,115.60 72.15,113.50 72.17,111.40 72.19,109.30 72.20,107.20 72.24,105.10 72.36,103.00 72.95,100.90 72.98,98.80 73.03,96.70 73.33,94.60 73.33,92.50 73.35,90.40 73.37,88.30 73.38,86.20 74.02,84.10 74.09,82.00 74.11,79.90 74.16,77.80 74.17,75.70 74.30,73.60 74.34,71.50 74.39,69.40 74.40,67.30 74.47,65.20 74.48,63.10 74.49,61.00 74.54,58.90 75.48,56.80 93.73,54.70 93.74,52.60 93.75,50.50 93.76,48.40 713.75,46.30 796.86,44.20 817.44,42.10 831.90,40.00 "/>
  <text x="70" y="480" font-family="Menlo, monospace" font-size="12" fill="#374151">0 ms</text>
  <text x="870" y="480" text-anchor="end" font-family="Menlo, monospace" font-size="12" fill="#374151">908.4 ms</text>
  <text x="42" y="460" font-family="Menlo, monospace" font-size="12" fill="#374151">0%</text>
  <text x="32" y="44" font-family="Menlo, monospace" font-size="12" fill="#374151">100%</text>
  <text x="450" y="502" font-family="Menlo, monospace" font-size="12" fill="#374151">Latency (ms)</text>
  <text x="20" y="260" transform="rotate(-90 20 260)" font-family="Menlo, monospace" font-size="12" fill="#374151">CDF</text>
  <line x1="89.45" y1="40" x2="89.45" y2="460" stroke="#dc2626" stroke-width="1.5" stroke-dasharray="6 4"/>
  <text x="97.45" y="54" font-family="Menlo, monospace" font-size="12" fill="#b91c1c">failover 22.1 ms</text>
</svg>