<?xml version="1.0" encoding="UTF-8"?>
<svg xmlns="http://www.w3.org/2000/svg" width="900" height="520" viewBox="0 0 900 520">
  <rect width="100%" height="100%" fill="#fffdf7"/>
  <text x="70" y="24" font-family="Menlo, monospace" font-size="18" fill="#1f2937">Latency Timeline</text>
  <rect x="251.16" y="40" width="8.59" height="420" fill="#fca5a5" fill-opacity="0.25"/>
  <text x="257.16" y="54" font-family="Menlo, monospace" font-size="12" fill="#991b1b">failover window</text>
  <line x1="70" y1="460" x2="870" y2="460" stroke="#111827" stroke-width="1.5"/>
  <line x1="70" y1="460" x2="70" y2="40" stroke="#111827" stroke-width="1.5"/>
  <circle cx="80.54" cy="448.10" r="3" fill="#2563eb"/><circle cx="80.55" cy="448.10" r="3" fill="#2563eb"/><circle cx="80.56" cy="448.09" r="3" fill="#2563eb"/><circle cx="80.56" cy="448.11" r="3" fill="#2563eb"/><circle cx="89.11" cy="459.59" r="3" fill="#2563eb"/><circle cx="89.17" cy="459.50" r="3" fill="#2563eb"/><circle cx="89.17" cy="459.50" r="3" fill="#2563eb"/><circle cx="89.21" cy="459.46" r="3" fill="#2563eb"/><circle cx="97.68" cy="459.56" r="3" fill="#2563eb"/><circle cx="97.68" cy="459.57" r="3" fill="#2563eb"/><circle cx="97.69" cy="459.57" r="3" fill="#2563eb"/><circle cx="97.69" cy="459.57" r="3" fill="#2563eb"/><circle cx="107.65" cy="457.85" r="3" fill="#2563eb"/><circle cx="107.66" cy="457.82" r="3" fill="#2563eb"/><circle cx="107.67" cy="457.80" r="3" fill="#2563eb"/><circle cx="107.68" cy="457.80" r="3" fill="#2563eb"/><circle cx="116.76" cy="459.24" r="3" fill="#2563eb"/><circle cx="116.77" cy="459.21" r="3" fill="#2563eb"/><circle cx="116.78" cy="459.29" r="3" fill="#2563eb"/><circle cx="116.78" cy="459.27" r="3" fill="#2563eb"/><circle cx="125.28" cy="459.64" r="3" fill="#2563eb"/><circle cx="125.29" cy="459.63" r="3" fill="#2563eb"/><circle cx="125.29" cy="459.65" r="3" fill="#2563eb"/><circle cx="125.30" cy="459.63" r="3" fill="#2563eb"/><circle cx="133.78" cy="459.50" r="3" fill="#2563eb"/><circle cx="133.79" cy="459.48" r="3" fill="#2563eb"/><circle cx="133.79" cy="459.48" r="3" fill="#2563eb"/><circle cx="133.80" cy="459.49" r="3" fill="#2563eb"/><circle cx="143.51" cy="457.95" r="3" fill="#2563eb"/><circle cx="143.51" cy="457.94" r="3" fill="#2563eb"/><circle cx="143.51" cy="457.91" r="3" fill="#2563eb"/><circle cx="143.52" cy="457.92" r="3" fill="#2563eb"/><circle cx="152.23" cy="459.41" r="3" fill="#2563eb"/><circle cx="152.23" cy="459.40" r="3" fill="#2563eb"/><circle cx="152.24" cy="459.41" r="3" fill="#2563eb"/><circle cx="152.24" cy="459.42" r="3" fill="#2563eb"/><circle cx="160.98" cy="458.93" r="3" fill="#2563eb"/><circle cx="160.98" cy="458.94" r="3" fill="#2563eb"/><circle cx="160.99" cy="458.94" r="3" fill="#2563eb"/><circle cx="160.99" cy="458.93" r="3" fill="#2563eb"/><circle cx="169.53" cy="459.60" r="3" fill="#2563eb"/><circle cx="169.53" cy="459.58" r="3" fill="#2563eb"/><circle cx="169.54" cy="459.59" r="3" fill="#2563eb"/><circle cx="169.54" cy="459.58" r="3" fill="#2563eb"/><circle cx="178.20" cy="459.45" r="3" fill="#2563eb"/><circle cx="178.21" cy="459.47" r="3" fill="#2563eb"/><circle cx="178.21" cy="459.45" r="3" fill="#2563eb"/><circle cx="178.22" cy="459.45" r="3" fill="#2563eb"/><circle cx="188.39" cy="457.72" r="3" fill="#2563eb"/><circle cx="188.39" cy="457.76" r="3" fill="#2563eb"/><circle cx="188.40" cy="457.75" r="3" fill="#2563eb"/><circle cx="188.41" cy="457.75" r="3" fill="#2563eb"/><circle cx="197.53" cy="458.94" r="3" fill="#2563eb"/><circle cx="197.54" cy="458.95" r="3" fill="#2563eb"/><circle cx="197.54" cy="458.95" r="3" fill="#2563eb"/><circle cx="197.55" cy="458.91" r="3" fill="#2563eb"/><circle cx="206.15" cy="459.54" r="3" fill="#2563eb"/><circle cx="206.19" cy="459.47" r="3" fill="#2563eb"/><circle cx="206.20" cy="459.47" r="3" fill="#2563eb"/><circle cx="206.20" cy="459.49" r="3" fill="#2563eb"/><circle cx="214.73" cy="459.56" r="3" fill="#2563eb"/><circle cx="214.74" cy="459.56" r="3" fill="#2563eb"/><circle cx="214.74" cy="459.54" r="3" fill="#2563eb"/><circle cx="214.74" cy="459.53" r="3" fill="#2563eb"/><circle cx="224.32" cy="459.13" r="3" fill="#2563eb"/><circle cx="224.33" cy="459.08" r="3" fill="#2563eb"/><circle cx="224.33" cy="459.18" r="3" fill="#2563eb"/><circle cx="224.34" cy="459.12" r="3" fill="#2563eb"/><circle cx="233.23" cy="459.23" r="3" fill="#2563eb"/><circle cx="233.23" cy="459.25" r="3" fill="#2563eb"/><circle cx="233.24" cy="459.18" r="3" fill="#2563eb"/><circle cx="233.24" cy="459.21" r="3" fill="#2563eb"/><circle cx="241.89" cy="459.28" r="3" fill="#2563eb"/><circle cx="241.90" cy="459.12" r="3" fill="#2563eb"/><circle cx="241.91" cy="459.20" r="3" fill="#2563eb"/><circle cx="241.91" cy="459.20" r="3" fill="#2563eb"/><circle cx="251.14" cy="458.92" r="3" fill="#2563eb"/><circle cx="251.14" cy="459.00" r="3" fill="#2563eb"/><circle cx="251.15" cy="458.95" r="3" fill="#2563eb"/><circle cx="251.16" cy="458.99" r="3" fill="#2563eb"/><circle cx="259.74" cy="459.55" r="3" fill="#2563eb"/><circle cx="259.75" cy="459.58" r="3" fill="#2563eb"/><circle cx="259.76" cy="459.55" r="3" fill="#2563eb"/><circle cx="268.30" cy="459.58" r="3" fill="#2563eb"/><circle cx="268.30" cy="459.63" r="3" fill="#2563eb"/><circle cx="268.30" cy="459.59" r="3" fill="#2563eb"/><circle cx="560.53" cy="137.39" r="3" fill="#2563eb"/><circle cx="568.89" cy="459.55" r="3" fill="#2563eb"/><circle cx="578.00" cy="458.99" r="3" fill="#2563eb"/><circle cx="586.59" cy="459.55" r="3" fill="#2563eb"/><circle cx="597.22" cy="457.26" r="3" fill="#2563eb"/><circle cx="597.22" cy="95.74" r="3" fill="#2563eb"/><circle cx="605.80" cy="459.56" r="3" fill="#2563eb"/><circle cx="605.82" cy="459.55" r="3" fill="#2563eb"/><circle cx="606.31" cy="85.43" r="3" fill="#2563eb"/><circle cx="614.66" cy="459.25" r="3" fill="#2563eb"/><circle cx="614.69" cy="459.25" r="3" fill="#2563eb"/><circle cx="614.69" cy="459.35" r="3" fill="#2563eb"/><circle cx="618.79" cy="78.18" r="3" fill="#2563eb"/><circle cx="623.38" cy="459.43" r="3" fill="#2563eb"/><circle cx="623.39" cy="459.44" r="3" fill="#2563eb"/><circle cx="623.40" cy="459.39" r="3" fill="#2563eb"/><circle cx="627.30" cy="459.64" r="3" fill="#2563eb"/><circle cx="631.80" cy="459.54" r="3" fill="#2563eb"/><circle cx="631.81" cy="459.53" r="3" fill="#2563eb"/><circle cx="631.82" cy="459.51" r="3" fill="#2563eb"/><circle cx="635.92" cy="459.52" r="3" fill="#2563eb"/><circle cx="640.49" cy="459.46" r="3" fill="#2563eb"/><circle cx="640.50" cy="459.45" r="3" fill="#2563eb"/><circle cx="640.50" cy="459.42" r="3" fill="#2563eb"/><circle cx="645.28" cy="458.31" r="3" fill="#2563eb"/><circle cx="649.15" cy="459.47" r="3" fill="#2563eb"/><circle cx="649.16" cy="459.43" r="3" fill="#2563eb"/><circle cx="649.16" cy="459.43" r="3" fill="#2563eb"/><circle cx="653.69" cy="459.58" r="3" fill="#2563eb"/><circle cx="657.44" cy="459.49" r="3" fill="#2563eb"/><circle cx="657.45" cy="459.46" r="3" fill="#2563eb"/><circle cx="657.46" cy="459.48" r="3" fill="#2563eb"/><circle cx="661.86" cy="459.60" r="3" fill="#2563eb"/><circle cx="665.92" cy="459.66" r="3" fill="#2563eb"/><circle cx="665.92" cy="459.66" r="3" fill="#2563eb"/><circle cx="665.93" cy="459.66" r="3" fill="#2563eb"/><circle cx="670.25" cy="459.78" r="3" fill="#2563eb"/><circle cx="674.58" cy="459.48" r="3" fill="#2563eb"/><circle cx="674.59" cy="459.48" r="3" fill="#2563eb"/><circle cx="674.61" cy="459.47" r="3" fill="#2563eb"/><circle cx="678.80" cy="459.61" r="3" fill="#2563eb"/><circle cx="683.02" cy="459.41" r="3" fill="#2563eb"/><circle cx="683.02" cy="459.40" r="3" fill="#2563eb"/><circle cx="683.03" cy="459.41" r="3" fill="#2563eb"/><circle cx="687.65" cy="459.33" r="3" fill="#2563eb"/><circle cx="692.17" cy="458.90" r="3" fill="#2563eb"/><circle cx="692.18" cy="458.88" r="3" fill="#2563eb"/><circle cx="692.19" cy="458.90" r="3" fill="#2563eb"/><circle cx="696.11" cy="459.70" r="3" fill="#2563eb"/><circle cx="700.83" cy="459.48" r="3" fill="#2563eb"/><circle cx="700.84" cy="459.51" r="3" fill="#2563eb"/><circle cx="700.86" cy="459.47" r="3" fill="#2563eb"/><circle cx="704.58" cy="459.65" r="3" fill="#2563eb"/><circle cx="709.51" cy="459.46" r="3" fill="#2563eb"/><circle cx="709.54" cy="459.42" r="3" fill="#2563eb"/><circle cx="709.54" cy="459.42" r="3" fill="#2563eb"/><circle cx="713.35" cy="459.41" r="3" fill="#2563eb"/><circle cx="718.16" cy="459.49" r="3" fill="#2563eb"/><circle cx="718.17" cy="459.46" r="3" fill="#2563eb"/><circle cx="718.18" cy="459.48" r="3" fill="#2563eb"/><circle cx="721.87" cy="459.60" r="3" fill="#2563eb"/><circle cx="726.94" cy="459.38" r="3" fill="#2563eb"/><circle cx="726.96" cy="459.34" r="3" fill="#2563eb"/><circle cx="726.96" cy="459.33" r="3" fill="#2563eb"/><circle cx="730.41" cy="459.54" r="3" fill="#2563eb"/><circle cx="735.85" cy="459.21" r="3" fill="#2563eb"/><circle cx="735.85" cy="459.29" r="3" fill="#2563eb"/><circle cx="735.86" cy="459.19" r="3" fill="#2563eb"/><circle cx="739.10" cy="459.33" r="3" fill="#2563eb"/><circle cx="745.37" cy="458.51" r="3" fill="#2563eb"/><circle cx="745.38" cy="458.52" r="3" fill="#2563eb"/><circle cx="745.40" cy="458.48" r="3" fill="#2563eb"/><circle cx="747.34" cy="459.69" r="3" fill="#2563eb"/><circle cx="753.96" cy="459.57" r="3" fill="#2563eb"/><circle cx="753.97" cy="459.54" r="3" fill="#2563eb"/><circle cx="753.98" cy="459.53" r="3" fill="#2563eb"/><circle cx="755.63" cy="459.61" r="3" fill="#2563eb"/><circle cx="762.74" cy="459.36" r="3" fill="#2563eb"/><circle cx="762.75" cy="459.33" r="3" fill="#2563eb"/><circle cx="762.75" cy="459.33" r="3" fill="#2563eb"/><circle cx="765.28" cy="457.99" r="3" fill="#2563eb"/><circle cx="772.51" cy="459.21" r="3" fill="#2563eb"/><circle cx="772.52" cy="459.18" r="3" fill="#2563eb"/><circle cx="772.52" cy="459.18" r="3" fill="#2563eb"/><circle cx="773.41" cy="459.69" r="3" fill="#2563eb"/><circle cx="781.16" cy="459.55" r="3" fill="#2563eb"/><circle cx="781.16" cy="459.50" r="3" fill="#2563eb"/><circle cx="781.19" cy="459.48" r="3" fill="#2563eb"/><circle cx="781.44" cy="459.74" r="3" fill="#2563eb"/><circle cx="790.84" cy="458.32" r="3" fill="#2563eb"/><circle cx="790.84" cy="458.33" r="3" fill="#2563eb"/><circle cx="790.84" cy="458.33" r="3" fill="#2563eb"/><circle cx="790.84" cy="458.31" r="3" fill="#2563eb"/><circle cx="799.60" cy="459.37" r="3" fill="#2563eb"/><circle cx="799.60" cy="459.39" r="3" fill="#2563eb"/><circle cx="799.61" cy="459.35" r="3" fill="#2563eb"/><circle cx="799.61" cy="459.34" r="3" fill="#2563eb"/><circle cx="808.40" cy="459.34" r="3" fill="#2563eb"/><circle cx="808.41" cy="459.36" r="3" fill="#2563eb"/><circle cx="808.41" cy="459.35" r="3" fill="#2563eb"/><circle cx="817.07" cy="459.51" r="3" fill="#2563eb"/><circle cx="817.08" cy="459.46" r="3" fill="#2563eb"/><circle cx="817.09" cy="459.44" r="3" fill="#2563eb"/><circle cx="825.70" cy="459.54" r="3" fill="#2563eb"/><circle cx="825.71" cy="459.48" r="3" fill="#2563eb"/><circle cx="825.72" cy="459.50" r="3" fill="#2563eb"/><circle cx="834.38" cy="459.46" r="3" fill="#2563eb"/><circle cx="834.39" cy="459.44" r="3" fill="#2563eb"/><circle cx="834.42" cy="459.41" r="3" fill="#2563eb"/><circle cx="843.42" cy="459.21" r="3" fill="#2563eb"/><circle cx="843.42" cy="459.17" r="3" fill="#2563eb"/><circle cx="852.02" cy="459.53" r="3" fill="#2563eb"/><circle cx="861.28" cy="458.82" r="3" fill="#2563eb"/><circle cx="870.00" cy="459.40" r="3" fill="#2563eb"/>
  <text x="70" y="480" font-family="Menlo, monospace" font-size="12" fill="#374151">0 ms</text>
  <text x="870" y="480" text-anchor="end" font-family="Menlo, monospace" font-size="12" fill="#374151">2057.5 ms</text>
  <text x="36" y="460" font-family="Menlo, monospace" font-size="12" fill="#374151">0 ms</text>
  <text x="22" y="44" font-family="Menlo, monospace" font-size="12" fill="#374151">951.7 ms</text>
  <text x="450" y="502" font-family="Menlo, monospace" font-size="12" fill="#374151">Time Since Start (ms)</text>
  <text x="20" y="260" transform="rotate(-90 20 260)" font-family="Menlo, monospace" font-size="12" fill="#374151">Latency (ms)</text>
</svg>